<svg width="288" height="80" viewBox="0 0 288 80" fill="none" xmlns="http://www.w3.org/2000/svg">
<g filter="url(#filter0_d_13_3280)">
<path d="M15 11.6649H33.0527C36.7541 11.6649 39.9346 12.219 42.5943 13.3272C45.2762 14.4354 47.3375 16.0756 48.7781 18.2477C50.2188 20.4198 50.9391 23.0905 50.9391 26.26C50.9391 28.8532 50.4958 31.0807 49.6093 32.9425C48.7449 34.7821 47.5148 36.3225 45.919 37.5637C44.3453 38.7827 42.4946 39.758 40.3668 40.4894L37.2085 42.1517H21.5163L21.4498 34.3721H33.1192C34.8701 34.3721 36.3219 34.0618 37.4744 33.4412C38.627 32.8206 39.4914 31.9562 40.0676 30.848C40.6661 29.7398 40.9653 28.4542 40.9653 26.9914C40.9653 25.4399 40.6771 24.099 40.1009 22.9686C39.5246 21.8383 38.6491 20.9739 37.4744 20.3754C36.2997 19.777 34.8258 19.4778 33.0527 19.4778H24.9739V60.0714H15V11.6649ZM42.0624 60.0714L31.0247 38.4946L41.5637 38.4281L52.7344 59.6059V60.0714H42.0624Z" fill="white"/>
<path d="M85.9679 11.6649H95.9085V43.6478C95.9085 47.3713 95.1106 50.5076 93.5148 53.0564C91.9411 55.6053 89.758 57.5225 86.9653 58.808C84.1948 60.0935 81.0032 60.7363 77.3904 60.7363C73.7776 60.7363 70.5639 60.0935 67.749 58.808C64.9563 57.5225 62.7621 55.6053 61.1663 53.0564C59.5926 50.5076 58.8058 47.3713 58.8058 43.6478V11.6649H68.7796V43.6478C68.7796 45.8198 69.1232 47.593 69.8103 48.9671C70.4974 50.3413 71.4837 51.3498 72.7692 51.9925C74.0769 52.6353 75.6173 52.9567 77.3904 52.9567C79.2079 52.9567 80.7483 52.6353 82.0116 51.9925C83.2971 51.3498 84.2724 50.3413 84.9373 48.9671C85.6244 47.593 85.9679 45.8198 85.9679 43.6478V11.6649Z" fill="white"/>
<path d="M123.69 38.8271H111.256L111.189 31.9783H121.628C123.468 31.9783 124.975 31.7456 126.15 31.2802C127.325 30.7926 128.2 30.0944 128.776 29.1857C129.375 28.2548 129.674 27.1244 129.674 25.7946C129.674 24.2874 129.386 23.0684 128.81 22.1375C128.255 21.2066 127.38 20.5306 126.183 20.1095C125.008 19.6883 123.49 19.4778 121.628 19.4778H114.713V60.0714H104.739V11.6649H121.628C124.443 11.6649 126.959 11.9309 129.175 12.4628C131.414 12.9948 133.309 13.8038 134.86 14.8898C136.412 15.9758 137.598 17.35 138.418 19.0123C139.238 20.6525 139.648 22.6029 139.648 24.8637C139.648 26.8584 139.193 28.6981 138.285 30.3825C137.398 32.067 135.991 33.4412 134.062 34.5051C132.156 35.5689 129.663 36.1563 126.582 36.2671L123.69 38.8271ZM123.257 60.0714H108.529L112.419 52.2918H123.257C125.008 52.2918 126.438 52.0147 127.546 51.4606C128.654 50.8843 129.474 50.1086 130.006 49.1334C130.538 48.1582 130.804 47.0389 130.804 45.7755C130.804 44.357 130.561 43.1269 130.073 42.0852C129.607 41.0435 128.854 40.2456 127.812 39.6915C126.77 39.1152 125.396 38.8271 123.69 38.8271H114.081L114.148 31.9783H126.117L128.411 34.6713C131.358 34.627 133.73 35.1478 135.525 36.2339C137.343 37.2977 138.662 38.683 139.482 40.3896C140.324 42.0963 140.745 43.9248 140.745 45.8753C140.745 48.9782 140.069 51.5936 138.717 53.7214C137.365 55.8269 135.381 57.4117 132.766 58.4756C130.173 59.5394 127.003 60.0714 123.257 60.0714Z" fill="white"/>
<path d="M168.526 19.9432L155.361 60.0714H144.755L162.741 11.6649H169.49L168.526 19.9432ZM179.464 60.0714L166.265 19.9432L165.201 11.6649H172.017L190.103 60.0714H179.464ZM178.866 42.0519V49.8648H153.299V42.0519H178.866Z" fill="white"/>
<path d="M212.731 11.6649V60.0714H202.79V11.6649H212.731ZM227.625 11.6649V19.4778H188.129V11.6649H227.625Z" fill="white"/>
<path d="M272.761 34.7378V37.0318C272.761 40.711 272.262 44.0135 271.265 46.9391C270.267 49.8648 268.86 52.3583 267.042 54.4195C265.225 56.4586 263.053 58.0212 260.526 59.1072C258.022 60.1933 255.24 60.7363 252.181 60.7363C249.145 60.7363 246.363 60.1933 243.837 59.1072C241.332 58.0212 239.16 56.4586 237.32 54.4195C235.481 52.3583 234.051 49.8648 233.032 46.9391C232.034 44.0135 231.535 40.711 231.535 37.0318V34.7378C231.535 31.0364 232.034 27.7339 233.032 24.8304C234.029 21.9047 235.436 19.4113 237.254 17.35C239.093 15.2888 241.265 13.7151 243.77 12.6291C246.297 11.543 249.078 11 252.115 11C255.173 11 257.955 11.543 260.46 12.6291C262.986 13.7151 265.158 15.2888 266.976 17.35C268.816 19.4113 270.234 21.9047 271.231 24.8304C272.251 27.7339 272.761 31.0364 272.761 34.7378ZM262.687 37.0318V34.6713C262.687 32.1002 262.454 29.8395 261.989 27.8891C261.523 25.9386 260.836 24.2985 259.928 22.9686C259.019 21.6388 257.911 20.6414 256.603 19.9765C255.295 19.2894 253.799 18.9458 252.115 18.9458C250.43 18.9458 248.934 19.2894 247.627 19.9765C246.341 20.6414 245.244 21.6388 244.335 22.9686C243.449 24.2985 242.773 25.9386 242.307 27.8891C241.842 29.8395 241.609 32.1002 241.609 34.6713V37.0318C241.609 39.5806 241.842 41.8414 242.307 43.814C242.773 45.7644 243.46 47.4157 244.368 48.7677C245.277 50.0975 246.385 51.106 247.693 51.7931C249.001 52.4802 250.497 52.8237 252.181 52.8237C253.866 52.8237 255.362 52.4802 256.67 51.7931C257.977 51.106 259.074 50.0975 259.961 48.7677C260.848 47.4157 261.523 45.7644 261.989 43.814C262.454 41.8414 262.687 39.5806 262.687 37.0318Z" fill="white"/>
</g>
<defs>
<filter id="filter0_d_13_3280" x="0" y="0" width="287.761" height="79.7363" filterUnits="userSpaceOnUse" color-interpolation-filters="sRGB">
<feFlood flood-opacity="0" result="BackgroundImageFix"/>
<feColorMatrix in="SourceAlpha" type="matrix" values="0 0 0 0 0 0 0 0 0 0 0 0 0 0 0 0 0 0 127 0" result="hardAlpha"/>
<feOffset dy="4"/>
<feGaussianBlur stdDeviation="7.5"/>
<feComposite in2="hardAlpha" operator="out"/>
<feColorMatrix type="matrix" values="0 0 0 0 0 0 0 0 0 0 0 0 0 0 0 0 0 0 0.3 0"/>
<feBlend mode="normal" in2="BackgroundImageFix" result="effect1_dropShadow_13_3280"/>
<feBlend mode="normal" in="SourceGraphic" in2="effect1_dropShadow_13_3280" result="shape"/>
</filter>
</defs>
</svg>
