<svg width="234" height="12" viewBox="0 0 234 12" fill="none" xmlns="http://www.w3.org/2000/svg">
<path d="M0.460913 0.847408H1.87388L5.47807 9.81632L9.0747 0.847408H10.4952L6.02209 11.8489H4.91892L0.460913 0.847408ZM0 0.847408H1.24673L1.45074 7.55709V11.8489H0V0.847408ZM9.70184 0.847408H10.9486V11.8489H9.49783V7.55709L9.70184 0.847408Z" fill="white"/>
<path d="M20.4231 0.847408H21.8739V8.29002C21.8739 9.11614 21.69 9.80373 21.3223 10.3528C20.9546 10.9019 20.466 11.3149 19.8564 11.592C19.252 11.864 18.5946 12 17.8843 12C17.1388 12 16.4638 11.864 15.8593 11.592C15.2599 11.3149 14.7839 10.9019 14.4313 10.3528C14.0837 9.80373 13.9099 9.11614 13.9099 8.29002V0.847408H15.3531V8.29002C15.3531 8.86427 15.4589 9.33778 15.6704 9.71054C15.882 10.0833 16.1767 10.3604 16.5545 10.5417C16.9373 10.723 17.3806 10.8137 17.8843 10.8137C18.3931 10.8137 18.8364 10.723 19.2142 10.5417C19.597 10.3604 19.8942 10.0833 20.1058 9.71054C20.3174 9.33778 20.4231 8.86427 20.4231 8.29002V0.847408Z" fill="white"/>
<path d="M30.6457 9.06828C30.6457 8.81138 30.6054 8.5847 30.5248 8.38825C30.4493 8.18676 30.3133 8.00541 30.1168 7.84422C29.9254 7.68303 29.6584 7.52939 29.3159 7.38331C28.9784 7.23722 28.5502 7.08862 28.0314 6.93751C27.4873 6.77631 26.9962 6.59749 26.558 6.40103C26.1197 6.19954 25.7444 5.97034 25.4321 5.71344C25.1198 5.45654 24.8805 5.16186 24.7143 4.82939C24.5481 4.49693 24.465 4.11662 24.465 3.68845C24.465 3.26028 24.5531 2.86485 24.7294 2.50216C24.9057 2.13948 25.1576 1.82464 25.485 1.55767C25.8175 1.28565 26.2129 1.07409 26.6713 0.922968C27.1297 0.771849 27.641 0.696289 28.2052 0.696289C29.0313 0.696289 29.7315 0.854964 30.3057 1.17231C30.885 1.48463 31.3258 1.89517 31.628 2.40393C31.9302 2.90766 32.0814 3.44666 32.0814 4.02091H30.6306C30.6306 3.60785 30.5425 3.24264 30.3662 2.92529C30.1899 2.60291 29.9229 2.35104 29.5652 2.1697C29.2076 1.98332 28.7542 1.89013 28.2052 1.89013C27.6863 1.89013 27.2581 1.96821 26.9206 2.12436C26.5831 2.28052 26.3313 2.49209 26.1651 2.75906C26.0039 3.02604 25.9233 3.3308 25.9233 3.67333C25.9233 3.90505 25.9711 4.11662 26.0668 4.30803C26.1676 4.49441 26.3212 4.6682 26.5277 4.82939C26.7393 4.99059 27.0063 5.13919 27.3287 5.2752C27.6561 5.4112 28.0465 5.54217 28.4998 5.66811C29.1245 5.84441 29.6635 6.04087 30.1168 6.25747C30.5702 6.47407 30.9429 6.71838 31.2351 6.9904C31.5323 7.25737 31.7514 7.56213 31.8925 7.90467C32.0385 8.24217 32.1116 8.625 32.1116 9.05317C32.1116 9.50149 32.0209 9.90699 31.8396 10.2697C31.6582 10.6324 31.3988 10.9422 31.0613 11.1991C30.7238 11.456 30.3183 11.6549 29.8448 11.796C29.3763 11.932 28.8525 12 28.2732 12C27.7644 12 27.2632 11.9295 26.7695 11.7884C26.2809 11.6474 25.8351 11.4358 25.4321 11.1537C25.0342 10.8716 24.7143 10.5241 24.4725 10.111C24.2358 9.69291 24.1174 9.20933 24.1174 8.66026H25.5681C25.5681 9.03806 25.6412 9.36297 25.7873 9.63498C25.9333 9.90196 26.1323 10.1236 26.3842 10.2999C26.6411 10.4762 26.9307 10.6072 27.2531 10.6928C27.5805 10.7734 27.9206 10.8137 28.2732 10.8137C28.7819 10.8137 29.2126 10.7432 29.5652 10.6021C29.9178 10.4611 30.1848 10.2596 30.3662 9.99767C30.5525 9.73573 30.6457 9.42593 30.6457 9.06828Z" fill="white"/>
<path d="M36.1534 0.847408V11.8489H34.6951V0.847408H36.1534Z" fill="white"/>
<path d="M46.0662 8.35047H47.517C47.4414 9.04562 47.2424 9.66772 46.92 10.2168C46.5977 10.7659 46.1418 11.2016 45.5524 11.524C44.9631 11.8413 44.2276 12 43.3461 12C42.7013 12 42.1145 11.8791 41.5855 11.6373C41.0617 11.3955 40.6108 11.053 40.233 10.6097C39.8552 10.1614 39.5631 9.62491 39.3565 9.00028C39.155 8.37062 39.0543 7.67043 39.0543 6.89973V5.80411C39.0543 5.03341 39.155 4.33574 39.3565 3.71111C39.5631 3.08145 39.8577 2.54246 40.2406 2.09414C40.6285 1.64582 41.0944 1.30077 41.6384 1.05897C42.1825 0.817184 42.7945 0.696289 43.4745 0.696289C44.3057 0.696289 45.0084 0.852445 45.5826 1.16476C46.1569 1.47707 46.6027 1.91028 46.92 2.46438C47.2424 3.01345 47.4414 3.65067 47.517 4.37604H46.0662C45.9957 3.86223 45.8647 3.42147 45.6733 3.05375C45.4819 2.68099 45.2099 2.39386 44.8573 2.19237C44.5047 1.99088 44.0437 1.89013 43.4745 1.89013C42.9859 1.89013 42.5552 1.98332 42.1825 2.1697C41.8147 2.35608 41.5049 2.62054 41.2531 2.96307C41.0063 3.30561 40.8199 3.71615 40.6939 4.19469C40.568 4.67324 40.505 5.20467 40.505 5.789V6.89973C40.505 7.43872 40.5605 7.94497 40.6713 8.41847C40.7871 8.89198 40.9609 9.30756 41.1926 9.6652C41.4243 10.0229 41.719 10.3049 42.0767 10.5115C42.4343 10.713 42.8575 10.8137 43.3461 10.8137C43.9657 10.8137 44.4593 10.7155 44.827 10.519C45.1948 10.3226 45.4718 10.0405 45.6582 9.67276C45.8496 9.30504 45.9856 8.86427 46.0662 8.35047Z" fill="white"/>
<path d="M55.0868 0.847408L57.943 6.37081L60.8067 0.847408H62.4614L58.6683 7.73844V11.8489H57.21V7.73844L53.417 0.847408H55.0868Z" fill="white"/>
<path d="M72.7369 6.00057V6.69571C72.7369 7.52183 72.6337 8.26232 72.4271 8.91716C72.2206 9.57201 71.9234 10.1286 71.5355 10.587C71.1476 11.0454 70.6817 11.3955 70.1377 11.6373C69.5987 11.8791 68.9942 12 68.3242 12C67.6744 12 67.0775 11.8791 66.5335 11.6373C65.9945 11.3955 65.526 11.0454 65.1281 10.587C64.7352 10.1286 64.4304 9.57201 64.2138 8.91716C63.9972 8.26232 63.8889 7.52183 63.8889 6.69571V6.00057C63.8889 5.17445 63.9947 4.43649 64.2062 3.78667C64.4229 3.13182 64.7276 2.5752 65.1205 2.11681C65.5134 1.65338 65.9794 1.30077 66.5184 1.05897C67.0624 0.817184 67.6593 0.696289 68.3091 0.696289C68.9791 0.696289 69.5836 0.817184 70.1226 1.05897C70.6666 1.30077 71.1325 1.65338 71.5204 2.11681C71.9133 2.5752 72.213 3.13182 72.4196 3.78667C72.6311 4.43649 72.7369 5.17445 72.7369 6.00057ZM71.2937 6.69571V5.98546C71.2937 5.33061 71.2257 4.75132 71.0897 4.24759C70.9587 3.74386 70.7648 3.32072 70.5079 2.97819C70.251 2.63565 69.9362 2.37623 69.5634 2.19992C69.1957 2.02362 68.7776 1.93547 68.3091 1.93547C67.8558 1.93547 67.4452 2.02362 67.0775 2.19992C66.7148 2.37623 66.4025 2.63565 66.1406 2.97819C65.8837 3.32072 65.6847 3.74386 65.5436 4.24759C65.4026 4.75132 65.3321 5.33061 65.3321 5.98546V6.69571C65.3321 7.3556 65.4026 7.93993 65.5436 8.4487C65.6847 8.95243 65.8862 9.37808 66.1481 9.72565C66.4151 10.0682 66.7299 10.3276 67.0926 10.5039C67.4603 10.6802 67.8709 10.7684 68.3242 10.7684C68.7977 10.7684 69.2184 10.6802 69.5861 10.5039C69.9538 10.3276 70.2636 10.0682 70.5155 9.72565C70.7724 9.37808 70.9663 8.95243 71.0973 8.4487C71.2282 7.93993 71.2937 7.3556 71.2937 6.69571Z" fill="white"/>
<path d="M81.8337 0.847408H83.2844V8.29002C83.2844 9.11614 83.1006 9.80373 82.7328 10.3528C82.3651 10.9019 81.8765 11.3149 81.267 11.592C80.6625 11.864 80.0051 12 79.2949 12C78.5494 12 77.8744 11.864 77.2699 11.592C76.6704 11.3149 76.1944 10.9019 75.8418 10.3528C75.4942 9.80373 75.3204 9.11614 75.3204 8.29002V0.847408H76.7636V8.29002C76.7636 8.86427 76.8694 9.33778 77.081 9.71054C77.2925 10.0833 77.5872 10.3604 77.965 10.5417C78.3479 10.723 78.7911 10.8137 79.2949 10.8137C79.8036 10.8137 80.2469 10.723 80.6247 10.5417C81.0076 10.3604 81.3048 10.0833 81.5163 9.71054C81.7279 9.33778 81.8337 8.86427 81.8337 8.29002V0.847408Z" fill="white"/>
<path d="M86.1929 0.847408H89.8348C90.6609 0.847408 91.3586 0.973341 91.9278 1.22521C92.5021 1.47707 92.9378 1.84983 93.235 2.34349C93.5372 2.8321 93.6884 3.43406 93.6884 4.14936C93.6884 4.65309 93.5851 5.114 93.3786 5.5321C93.1771 5.94516 92.8849 6.29777 92.5021 6.58993C92.1243 6.87706 91.6709 7.09114 91.142 7.23219L90.734 7.39086H87.3111L87.296 6.20458H89.8802C90.404 6.20458 90.8398 6.11391 91.1873 5.93256C91.5349 5.74618 91.7969 5.49684 91.9732 5.18452C92.1495 4.87221 92.2376 4.52716 92.2376 4.14936C92.2376 3.72623 92.1545 3.35598 91.9883 3.03863C91.822 2.72128 91.5601 2.47698 91.2025 2.30571C90.8498 2.1294 90.394 2.04125 89.8348 2.04125H87.6512V11.8489H86.1929V0.847408ZM92.623 11.8489L89.9482 6.86195L91.4669 6.85439L94.1795 11.7582V11.8489H92.623Z" fill="white"/>
<path d="M104.726 6.70327H101.938L101.923 5.5321H104.454C104.872 5.5321 105.238 5.46158 105.55 5.32053C105.862 5.17949 106.104 4.97799 106.275 4.71606C106.452 4.44908 106.54 4.13173 106.54 3.76401C106.54 3.36102 106.462 3.0336 106.306 2.78173C106.154 2.52483 105.92 2.33845 105.603 2.22259C105.291 2.1017 104.893 2.04125 104.409 2.04125H102.263V11.8489H100.805V0.847408H104.409C104.973 0.847408 105.477 0.905337 105.92 1.02119C106.364 1.13202 106.739 1.30832 107.046 1.55011C107.358 1.78686 107.595 2.0891 107.756 2.45683C107.918 2.82455 107.998 3.26531 107.998 3.77912C107.998 4.23247 107.882 4.64301 107.651 5.01074C107.419 5.37342 107.096 5.67062 106.683 5.90234C106.275 6.13406 105.797 6.28266 105.248 6.34814L104.726 6.70327ZM104.658 11.8489H101.364L102.188 10.6626H104.658C105.122 10.6626 105.515 10.582 105.837 10.4208C106.165 10.2596 106.414 10.0329 106.585 9.74076C106.756 9.44356 106.842 9.09347 106.842 8.69049C106.842 8.28246 106.769 7.92985 106.623 7.63265C106.477 7.33545 106.248 7.10625 105.935 6.94506C105.623 6.78387 105.22 6.70327 104.726 6.70327H102.649L102.664 5.5321H105.505L105.814 5.95523C106.343 6.00057 106.792 6.15169 107.159 6.40859C107.527 6.66045 107.807 6.98284 107.998 7.37575C108.195 7.76866 108.293 8.20187 108.293 8.67537C108.293 9.36045 108.142 9.93974 107.839 10.4132C107.542 10.8817 107.122 11.2394 106.578 11.4862C106.034 11.728 105.394 11.8489 104.658 11.8489Z" fill="white"/>
<path d="M119.535 6.00057V6.69571C119.535 7.52183 119.432 8.26232 119.226 8.91716C119.019 9.57201 118.722 10.1286 118.334 10.587C117.946 11.0454 117.48 11.3955 116.936 11.6373C116.397 11.8791 115.793 12 115.123 12C114.473 12 113.876 11.8791 113.332 11.6373C112.793 11.3955 112.325 11.0454 111.927 10.587C111.534 10.1286 111.229 9.57201 111.012 8.91716C110.796 8.26232 110.687 7.52183 110.687 6.69571V6.00057C110.687 5.17445 110.793 4.43649 111.005 3.78667C111.221 3.13182 111.526 2.5752 111.919 2.11681C112.312 1.65338 112.778 1.30077 113.317 1.05897C113.861 0.817184 114.458 0.696289 115.108 0.696289C115.778 0.696289 116.382 0.817184 116.921 1.05897C117.465 1.30077 117.931 1.65338 118.319 2.11681C118.712 2.5752 119.012 3.13182 119.218 3.78667C119.43 4.43649 119.535 5.17445 119.535 6.00057ZM118.092 6.69571V5.98546C118.092 5.33061 118.024 4.75132 117.888 4.24759C117.757 3.74386 117.563 3.32072 117.306 2.97819C117.05 2.63565 116.735 2.37623 116.362 2.19992C115.994 2.02362 115.576 1.93547 115.108 1.93547C114.654 1.93547 114.244 2.02362 113.876 2.19992C113.513 2.37623 113.201 2.63565 112.939 2.97819C112.682 3.32072 112.483 3.74386 112.342 4.24759C112.201 4.75132 112.131 5.33061 112.131 5.98546V6.69571C112.131 7.3556 112.201 7.93993 112.342 8.4487C112.483 8.95243 112.685 9.37808 112.947 9.72565C113.214 10.0682 113.528 10.3276 113.891 10.5039C114.259 10.6802 114.669 10.7684 115.123 10.7684C115.596 10.7684 116.017 10.6802 116.385 10.5039C116.752 10.3276 117.062 10.0682 117.314 9.72565C117.571 9.37808 117.765 8.95243 117.896 8.4487C118.027 7.93993 118.092 7.3556 118.092 6.69571Z" fill="white"/>
<path d="M125.315 11.8489H123.018L123.033 10.6626H125.315C126.101 10.6626 126.756 10.4989 127.28 10.1715C127.804 9.83899 128.196 9.37556 128.458 8.78116C128.725 8.18172 128.859 7.48153 128.859 6.6806V6.00812C128.859 5.37846 128.783 4.81932 128.632 4.3307C128.481 3.83705 128.259 3.42147 127.967 3.08397C127.675 2.74143 127.317 2.48201 126.894 2.30571C126.476 2.1294 125.995 2.04125 125.451 2.04125H122.973V0.847408H125.451C126.172 0.847408 126.829 0.968303 127.423 1.21009C128.018 1.44685 128.529 1.7919 128.957 2.24526C129.39 2.69358 129.723 3.23761 129.955 3.87734C130.186 4.51204 130.302 5.22734 130.302 6.02323V6.6806C130.302 7.4765 130.186 8.19431 129.955 8.83405C129.723 9.46875 129.388 10.0103 128.95 10.4586C128.516 10.9069 127.992 11.252 127.378 11.4937C126.768 11.7305 126.081 11.8489 125.315 11.8489ZM123.796 0.847408V11.8489H122.338V0.847408H123.796Z" fill="white"/>
<path d="M133.286 0.847408L136.142 6.37081L139.006 0.847408H140.661L136.868 7.73844V11.8489H135.409V7.73844L131.616 0.847408H133.286Z" fill="white"/>
<path d="M153.822 10.6626V11.8489H148.321V10.6626H153.822ZM148.608 0.847408V11.8489H147.15V0.847408H148.608Z" fill="white"/>
<path d="M157.675 0.847408V11.8489H156.217V0.847408H157.675Z" fill="white"/>
<path d="M166.809 9.06828C166.809 8.81138 166.769 8.5847 166.689 8.38825C166.613 8.18676 166.477 8.00541 166.281 7.84422C166.089 7.68303 165.822 7.52939 165.48 7.38331C165.142 7.23722 164.714 7.08862 164.195 6.93751C163.651 6.77631 163.16 6.59749 162.722 6.40103C162.283 6.19954 161.908 5.97034 161.596 5.71344C161.284 5.45654 161.044 5.16186 160.878 4.82939C160.712 4.49693 160.629 4.11662 160.629 3.68845C160.629 3.26028 160.717 2.86485 160.893 2.50216C161.069 2.13948 161.321 1.82464 161.649 1.55767C161.981 1.28565 162.377 1.07409 162.835 0.922968C163.293 0.771849 163.805 0.696289 164.369 0.696289C165.195 0.696289 165.895 0.854964 166.469 1.17231C167.049 1.48463 167.489 1.89517 167.792 2.40393C168.094 2.90766 168.245 3.44666 168.245 4.02091H166.794C166.794 3.60785 166.706 3.24264 166.53 2.92529C166.354 2.60291 166.087 2.35104 165.729 2.1697C165.371 1.98332 164.918 1.89013 164.369 1.89013C163.85 1.89013 163.422 1.96821 163.084 2.12436C162.747 2.28052 162.495 2.49209 162.329 2.75906C162.168 3.02604 162.087 3.3308 162.087 3.67333C162.087 3.90505 162.135 4.11662 162.231 4.30803C162.331 4.49441 162.485 4.6682 162.691 4.82939C162.903 4.99059 163.17 5.13919 163.492 5.2752C163.82 5.4112 164.21 5.54217 164.664 5.66811C165.288 5.84441 165.827 6.04087 166.281 6.25747C166.734 6.47407 167.107 6.71838 167.399 6.9904C167.696 7.25737 167.915 7.56213 168.056 7.90467C168.202 8.24217 168.275 8.625 168.275 9.05317C168.275 9.50149 168.185 9.90699 168.003 10.2697C167.822 10.6324 167.562 10.9422 167.225 11.1991C166.887 11.456 166.482 11.6549 166.008 11.796C165.54 11.932 165.016 12 164.437 12C163.928 12 163.427 11.9295 162.933 11.7884C162.445 11.6474 161.999 11.4358 161.596 11.1537C161.198 10.8716 160.878 10.5241 160.636 10.111C160.399 9.69291 160.281 9.20933 160.281 8.66026H161.732C161.732 9.03806 161.805 9.36297 161.951 9.63498C162.097 9.90196 162.296 10.1236 162.548 10.2999C162.805 10.4762 163.094 10.6072 163.417 10.6928C163.744 10.7734 164.084 10.8137 164.437 10.8137C164.946 10.8137 165.376 10.7432 165.729 10.6021C166.082 10.4611 166.349 10.2596 166.53 9.99767C166.716 9.73573 166.809 9.42593 166.809 9.06828Z" fill="white"/>
<path d="M174.818 0.847408V11.8489H173.382V0.847408H174.818ZM178.354 0.847408V2.04125H169.854V0.847408H178.354Z" fill="white"/>
<path d="M187.595 10.6626V11.8489H181.769V10.6626H187.595ZM182.064 0.847408V11.8489H180.605V0.847408H182.064ZM186.824 5.57743V6.76372H181.769V5.57743H186.824ZM187.519 0.847408V2.04125H181.769V0.847408H187.519Z" fill="white"/>
<path d="M198.482 0.847408V11.8489H197.016L191.478 3.36354V11.8489H190.019V0.847408H191.478L197.039 9.35541V0.847408H198.482Z" fill="white"/>
<path d="M207.549 9.06828C207.549 8.81138 207.508 8.5847 207.428 8.38825C207.352 8.18676 207.216 8.00541 207.02 7.84422C206.828 7.68303 206.561 7.52939 206.219 7.38331C205.881 7.23722 205.453 7.08862 204.934 6.93751C204.39 6.77631 203.899 6.59749 203.461 6.40103C203.023 6.19954 202.647 5.97034 202.335 5.71344C202.023 5.45654 201.784 5.16186 201.617 4.82939C201.451 4.49693 201.368 4.11662 201.368 3.68845C201.368 3.26028 201.456 2.86485 201.632 2.50216C201.809 2.13948 202.061 1.82464 202.388 1.55767C202.72 1.28565 203.116 1.07409 203.574 0.922968C204.033 0.771849 204.544 0.696289 205.108 0.696289C205.934 0.696289 206.634 0.854964 207.209 1.17231C207.788 1.48463 208.229 1.89517 208.531 2.40393C208.833 2.90766 208.984 3.44666 208.984 4.02091H207.534C207.534 3.60785 207.445 3.24264 207.269 2.92529C207.093 2.60291 206.826 2.35104 206.468 2.1697C206.111 1.98332 205.657 1.89013 205.108 1.89013C204.589 1.89013 204.161 1.96821 203.824 2.12436C203.486 2.28052 203.234 2.49209 203.068 2.75906C202.907 3.02604 202.826 3.3308 202.826 3.67333C202.826 3.90505 202.874 4.11662 202.97 4.30803C203.071 4.49441 203.224 4.6682 203.431 4.82939C203.642 4.99059 203.909 5.13919 204.232 5.2752C204.559 5.4112 204.949 5.54217 205.403 5.66811C206.027 5.84441 206.566 6.04087 207.02 6.25747C207.473 6.47407 207.846 6.71838 208.138 6.9904C208.435 7.25737 208.654 7.56213 208.795 7.90467C208.942 8.24217 209.015 8.625 209.015 9.05317C209.015 9.50149 208.924 9.90699 208.743 10.2697C208.561 10.6324 208.302 10.9422 207.964 11.1991C207.627 11.456 207.221 11.6549 206.748 11.796C206.279 11.932 205.755 12 205.176 12C204.667 12 204.166 11.9295 203.672 11.7884C203.184 11.6474 202.738 11.4358 202.335 11.1537C201.937 10.8716 201.617 10.5241 201.375 10.111C201.139 9.69291 201.02 9.20933 201.02 8.66026H202.471C202.471 9.03806 202.544 9.36297 202.69 9.63498C202.836 9.90196 203.035 10.1236 203.287 10.2999C203.544 10.4762 203.834 10.6072 204.156 10.6928C204.484 10.7734 204.824 10.8137 205.176 10.8137C205.685 10.8137 206.116 10.7432 206.468 10.6021C206.821 10.4611 207.088 10.2596 207.269 9.99767C207.456 9.73573 207.549 9.42593 207.549 9.06828Z" fill="white"/>
<path d="M219.713 0.847408V11.8489H218.277V0.847408H219.713ZM223.249 0.847408V2.04125H214.748V0.847408H223.249Z" fill="white"/>
<path d="M233.758 6.00057V6.69571C233.758 7.52183 233.655 8.26232 233.449 8.91716C233.242 9.57201 232.945 10.1286 232.557 10.587C232.169 11.0454 231.703 11.3955 231.159 11.6373C230.62 11.8791 230.016 12 229.346 12C228.696 12 228.099 11.8791 227.555 11.6373C227.016 11.3955 226.548 11.0454 226.15 10.587C225.757 10.1286 225.452 9.57201 225.235 8.91716C225.019 8.26232 224.91 7.52183 224.91 6.69571V6.00057C224.91 5.17445 225.016 4.43649 225.228 3.78667C225.444 3.13182 225.749 2.5752 226.142 2.11681C226.535 1.65338 227.001 1.30077 227.54 1.05897C228.084 0.817184 228.681 0.696289 229.331 0.696289C230.001 0.696289 230.605 0.817184 231.144 1.05897C231.688 1.30077 232.154 1.65338 232.542 2.11681C232.935 2.5752 233.235 3.13182 233.441 3.78667C233.653 4.43649 233.758 5.17445 233.758 6.00057ZM232.315 6.69571V5.98546C232.315 5.33061 232.247 4.75132 232.111 4.24759C231.98 3.74386 231.786 3.32072 231.529 2.97819C231.273 2.63565 230.958 2.37623 230.585 2.19992C230.217 2.02362 229.799 1.93547 229.331 1.93547C228.877 1.93547 228.467 2.02362 228.099 2.19992C227.736 2.37623 227.424 2.63565 227.162 2.97819C226.905 3.32072 226.706 3.74386 226.565 4.24759C226.424 4.75132 226.354 5.33061 226.354 5.98546V6.69571C226.354 7.3556 226.424 7.93993 226.565 8.4487C226.706 8.95243 226.908 9.37808 227.17 9.72565C227.437 10.0682 227.751 10.3276 228.114 10.5039C228.482 10.6802 228.892 10.7684 229.346 10.7684C229.819 10.7684 230.24 10.6802 230.608 10.5039C230.975 10.3276 231.285 10.0682 231.537 9.72565C231.794 9.37808 231.988 8.95243 232.119 8.4487C232.25 7.93993 232.315 7.3556 232.315 6.69571Z" fill="white"/>
</svg>
