<svg width="38" height="27" viewBox="0 0 38 27" fill="none" xmlns="http://www.w3.org/2000/svg">
<g clip-path="url(#clip0_16_3041)">
<path d="M7.80433 4.27295C9.7762 4.27295 11.7006 4.27295 13.7081 4.27295C13.5893 4.43108 13.4942 4.54055 13.4111 4.65003C12.5083 5.8056 11.5461 6.92468 11.2254 8.40867C11.0947 9.01687 11.0829 9.69805 11.2254 10.2941C11.5224 11.6078 12.7934 12.3619 14.207 12.1552C15.2523 12.0092 16.1907 11.5956 16.9747 10.8293C17.6993 10.1238 18.5189 9.55208 19.4811 9.23582C19.7543 9.15067 19.9444 9.175 20.1582 9.36962C23.4724 12.4836 26.7984 15.5854 30.1126 18.6993C30.6827 19.2345 30.7302 19.9644 30.2551 20.4753C29.7681 20.9983 29.0791 20.9861 28.5208 20.4266C26.8222 18.748 25.1235 17.0694 23.4367 15.3907C23.3179 15.2691 23.211 15.1475 23.0804 15.0502C22.7596 14.8434 22.427 14.8434 22.1419 15.1231C21.8568 15.3907 21.8093 15.7922 22.035 16.1206C22.1182 16.2422 22.2251 16.3517 22.332 16.449C23.7812 17.8843 25.2304 19.3318 26.6796 20.7672C27.0122 21.0956 27.2023 21.4727 27.1548 21.9471C27.0954 22.4336 26.8221 22.7864 26.3708 22.9689C25.8956 23.1635 25.4561 23.0783 25.0879 22.7256C24.6721 22.3242 24.292 21.9106 23.9 21.4849C22.7715 20.2928 21.643 19.1007 20.5264 17.9087C20.2651 17.6411 19.98 17.4829 19.6118 17.6289C19.0654 17.8357 18.9703 18.4925 19.4098 18.9791C20.5502 20.1955 21.7024 21.4119 22.8428 22.6161C22.9616 22.7499 23.0922 22.8837 23.1991 23.0297C23.5317 23.5041 23.4724 24.1609 23.0685 24.5745C22.6765 24.9759 22.0113 25.0367 21.5599 24.6961C21.4173 24.5867 21.2867 24.4528 21.1679 24.3312C19.8493 22.9932 18.5427 21.643 17.236 20.305C16.9509 20.013 16.6302 19.9157 16.262 20.1103C15.9294 20.2806 15.7987 20.5969 15.8937 20.9496C15.9413 21.1443 16.0838 21.3267 16.2263 21.4727C17.2123 22.5066 18.222 23.5162 19.2079 24.538C19.3029 24.6353 19.398 24.7326 19.493 24.8299C19.8256 25.2313 19.8493 25.7544 19.5286 26.1193C19.2079 26.4964 18.7209 26.5572 18.2814 26.2288C17.2717 25.4746 16.2739 24.7083 15.2998 23.9298C11.7124 21.0348 8.31512 17.9695 5.22665 14.5271C4.96532 14.2352 4.89405 13.9919 5.01283 13.6027C5.91562 10.6347 6.78276 7.65451 7.67367 4.67436C7.72118 4.55272 7.75682 4.41892 7.80433 4.27295Z" fill="#0075FF"/>
<path d="M19.8612 2.27808C20.3482 2.39972 20.8234 2.4727 21.2629 2.65516C23.8287 3.67692 26.3826 4.72302 28.9366 5.79344C29.1266 5.86642 29.3048 6.08537 29.3761 6.29216C30.5402 9.50343 31.6924 12.7269 32.8565 15.9381C32.9516 16.1936 32.9516 16.4004 32.7496 16.5828C32.5833 16.7409 32.4527 16.9234 32.2745 17.0694C31.5142 17.7505 31.3242 17.7505 30.5877 17.0572C27.3448 14.0162 24.1019 10.9874 20.8709 7.93429C20.5027 7.5937 20.1463 7.48422 19.6593 7.58153C18.1626 7.89779 16.9509 8.70061 15.8581 9.73454C15.3354 10.2333 14.7177 10.5009 14.0288 10.5982C13.031 10.7441 12.4251 10.0873 12.6152 9.06553C12.6746 8.71278 12.7696 8.33569 12.9359 8.0316C14.2307 5.6718 15.9412 3.73774 18.4358 2.67948C18.899 2.49703 19.398 2.41188 19.8612 2.27808Z" fill="#0075FF"/>
<path d="M38 10.2818C38 12.4835 38 14.6852 38 16.8868C38 17.7383 37.7743 17.9694 36.9428 17.9694C36.6458 17.9694 36.3489 17.9694 36.0519 17.9694C35.3629 17.9694 35.161 17.8235 34.9234 17.1666C33.8306 14.1378 32.7377 11.109 31.6449 8.08018C31.2885 7.0949 30.9322 6.12179 30.5877 5.13652C30.2907 4.32153 30.4689 3.92013 31.2767 3.62819C32.9278 3.02 34.6383 2.78888 36.3726 2.61859C36.5627 2.59426 36.7527 2.5821 36.9428 2.56993C37.6674 2.49695 37.9881 2.78888 37.9881 3.54305C38 5.7812 38 8.03152 38 10.2818Z" fill="#0075FF"/>
<path d="M1.42545 15.9748C0.0950297 15.9748 0 15.8775 0 14.5395C0 10.2578 0 5.96395 0 1.68226C0 0.70915 0.261332 0.453708 1.19975 0.526691C2.85089 0.660494 4.44264 1.03757 5.97499 1.70659C6.59269 1.97419 6.77087 2.35128 6.58081 3.02029C5.38106 7.08303 4.16943 11.1458 2.96968 15.2085C2.80338 15.768 2.55392 15.9505 2.0075 15.9748C1.81744 15.987 1.6155 15.9748 1.42545 15.9748Z" fill="#0075FF"/>
</g>
<defs>
<clipPath id="clip0_16_3041">
<rect width="38" height="25.9091" fill="white" transform="translate(0 0.514282)"/>
</clipPath>
</defs>
</svg>
