<svg width="26" height="30" viewBox="0 0 26 30" fill="none" xmlns="http://www.w3.org/2000/svg">
<path d="M14.9378 23.1482C14.9378 22.6454 14.9378 22.1327 14.9378 21.6201C14.9378 20.0033 14.8421 18.3766 15.2344 16.7992C15.4928 15.7542 15.866 14.7387 16.1722 13.7035C16.2297 13.5162 16.2775 13.2895 16.2297 13.1022C16.1053 12.6585 15.5311 12.5599 15.2536 12.9346C15.0909 13.1515 14.8995 13.1909 14.689 13.1317C14.2679 13.0134 13.8373 12.8853 13.445 12.698C13.1292 12.5501 12.8708 12.5599 12.5646 12.698C12.1244 12.8853 11.6651 13.0233 11.2057 13.1317C11.0909 13.1613 10.9091 13.0627 10.8134 12.9641C10.5454 12.698 10.2871 12.629 10.0096 12.7965C9.74162 12.9641 9.64593 13.2895 9.79904 13.6345C10.3062 14.8176 10.7177 16.0499 10.8612 17.3414C10.9761 18.3371 11.0143 19.3526 11.0526 20.3582C11.0813 21.2947 11.0622 22.2215 11.0622 23.1876C10.2871 23.1876 9.55023 23.1975 8.81339 23.1778C8.47846 23.1679 8.28708 22.9017 8.26794 22.5172C8.23923 22.0539 8.23923 21.5806 8.16267 21.1173C8.03827 20.3877 7.64593 19.7765 7.22488 19.185C6.66985 18.3963 6.03827 17.6569 5.58851 16.809C2.76555 11.5445 6.07655 4.88002 11.866 4.09132C16.5742 3.46037 20.8325 6.8419 21.378 11.6924C21.6459 14.1078 21.0143 16.2767 19.5407 18.1794C19.2727 18.5244 19.0048 18.8695 18.7368 19.2146C18.0383 20.1018 17.7033 21.1173 17.7321 22.2609C17.7512 23.0299 17.5789 23.1876 16.8325 23.1876C16.2297 23.1876 15.6364 23.1876 15.0335 23.1778C15.0143 23.1876 14.9952 23.1679 14.9378 23.1482Z" fill="#FFDF38"/>
<path d="M16.8325 24.4693C16.8325 24.7749 16.8325 25.0805 16.8325 25.4157C17.3206 25.4946 18 25.3073 17.9617 26.096C17.9235 26.8551 17.2536 26.6086 16.823 26.6875C15.9904 29.0043 14.8421 30 12.9952 30C11.1579 30 10.0287 29.0141 9.17704 26.6776C8.72728 26.6086 8.04785 26.8452 8.03828 26.0467C8.02872 25.3171 8.66029 25.4551 9.14833 25.4157C9.14833 25.1002 9.14833 24.7946 9.14833 24.4594C11.7225 24.4693 14.2584 24.4693 16.8325 24.4693Z" fill="#FFDF38"/>
<path d="M11.3684 14.4528C11.9234 14.2557 12.4019 14.0782 12.89 13.9106C12.9569 13.8909 13.0335 13.881 13.0909 13.9008C13.5885 14.0684 14.0766 14.2557 14.622 14.4528C13.5407 17.2527 13.7512 20.2202 13.7416 23.1778C13.6364 23.1877 13.5598 23.1975 13.4928 23.1975C13.1005 23.1975 12.7081 23.1975 12.2584 23.1975C12.2392 20.23 12.4593 17.2626 11.3684 14.4528Z" fill="#FFDF38"/>
<path d="M24.3254 12.0966C24.6794 12.0966 25.0431 12.0867 25.3971 12.0966C25.7608 12.1065 25.9904 12.3529 26 12.698C26 13.0233 25.799 13.2994 25.4545 13.3092C24.6986 13.3289 23.9521 13.3289 23.1962 13.3092C22.8612 13.2994 22.6411 13.0233 22.6411 12.698C22.6507 12.3628 22.8995 12.1065 23.244 12.0966C23.5981 12.0867 23.9617 12.0966 24.3254 12.0966Z" fill="#FFDF38"/>
<path d="M1.67464 12.0966C2.00957 12.0966 2.3445 12.0966 2.67943 12.0966C3.08134 12.1065 3.34928 12.3431 3.35885 12.698C3.36842 13.043 3.11962 13.3092 2.73684 13.3191C2.02871 13.3388 1.33014 13.3388 0.62201 13.3191C0.229665 13.3092 0 13.0529 0 12.698C0 12.3332 0.258373 12.1065 0.669856 12.0966C1.00478 12.0867 1.33971 12.0966 1.67464 12.0966Z" fill="#FFDF38"/>
<path d="M22.4498 3.61811C22.3254 3.84486 22.2584 4.02232 22.1435 4.14062C21.6746 4.64342 21.1866 5.14621 20.6986 5.62929C20.4019 5.92505 20.0574 5.92505 19.8086 5.66872C19.5789 5.42225 19.5789 5.05748 19.8469 4.78144C20.3349 4.26879 20.823 3.76599 21.311 3.2632C21.512 3.05617 21.7608 2.9773 21.9904 3.11532C22.1722 3.22376 22.2871 3.44066 22.4498 3.61811Z" fill="#FFDF38"/>
<path d="M4.17224 22.4187C4.00956 22.2807 3.77033 22.1722 3.71291 22.0046C3.64593 21.8173 3.66507 21.5018 3.78947 21.3638C4.28708 20.7821 4.83253 20.2498 5.37798 19.7075C5.61722 19.4709 5.96172 19.5005 6.18181 19.7273C6.40191 19.954 6.43062 20.3089 6.20095 20.5554C5.69377 21.1075 5.16746 21.6398 4.63157 22.1722C4.52631 22.2807 4.36363 22.3201 4.17224 22.4187Z" fill="#FFDF38"/>
<path d="M4.18182 2.98718C4.39235 3.10549 4.55503 3.15478 4.66986 3.26323C5.16747 3.75616 5.6555 4.25895 6.14354 4.77161C6.41148 5.05751 6.42105 5.41242 6.19139 5.65889C5.94258 5.92507 5.59809 5.92507 5.30144 5.62931C4.80383 5.13638 4.28708 4.63358 3.81818 4.09136C3.69378 3.94348 3.64593 3.61814 3.70335 3.43082C3.76077 3.25337 4.00957 3.13506 4.18182 2.98718Z" fill="#FFDF38"/>
<path d="M22.4211 21.8074C22.2967 21.9652 22.201 22.2018 22.0383 22.2609C21.8565 22.3299 21.5502 22.3102 21.4163 22.1919C20.8517 21.6694 20.3158 21.0976 19.7895 20.5357C19.5789 20.3089 19.6172 19.954 19.8278 19.7272C20.0383 19.5103 20.3923 19.4611 20.6124 19.6779C21.177 20.23 21.7225 20.8018 22.2584 21.3736C22.3254 21.4624 22.3445 21.6201 22.4211 21.8074Z" fill="#FFDF38"/>
<path d="M12.9952 1.52813C12.9952 1.81403 13.0048 2.09007 12.9952 2.37598C12.9857 2.78018 12.756 3.03651 12.4211 3.03651C12.0957 3.02665 11.8756 2.78018 11.866 2.39569C11.8565 1.80417 11.8565 1.21265 11.866 0.621128C11.8756 0.246498 12.1148 -0.00982803 12.4402 3.06584e-05C12.7464 0.00988935 12.9761 0.246498 12.9952 0.601411C13.0048 0.916889 12.9857 1.22251 12.9952 1.52813Z" fill="#FFDF38"/>
</svg>
