<svg width="35" height="35" viewBox="0 0 35 35" fill="none" xmlns="http://www.w3.org/2000/svg">
<g clip-path="url(#clip0_13_3786)">
<path d="M2 5.08748C2.48465 4.00229 3.31698 3.69675 4.18092 4.31836C4.43378 4.49747 4.66556 4.7398 4.83414 5.00319C5.51896 6.01463 5.75075 7.17357 5.88772 8.35358C5.97201 9.07002 5.95093 9.78645 6.04576 10.5029C6.13004 11.135 6.31969 11.7461 6.46719 12.3677C6.4988 12.5047 6.54094 12.6522 6.56201 12.7786C6.16165 12.9156 5.76129 13.0104 5.40307 13.2001C3.65412 14.1272 3.13787 16.129 4.13877 17.9517C4.33895 18.331 4.61288 18.6787 4.90789 18.9842C6.04576 20.1537 7.2047 21.2916 8.3531 22.4505C8.39524 22.4927 8.45846 22.5348 8.5006 22.5769C9.03793 21.9975 9.03793 21.26 8.469 20.6805C7.69988 19.8903 6.90969 19.1107 6.13004 18.331C5.66647 17.8674 5.2345 17.3828 5.06592 16.7296C4.84467 15.8551 5.02378 15.0965 5.76129 14.5381C6.48826 13.9797 7.28898 14.0113 8.02649 14.4538C8.54275 14.7594 8.99579 15.1597 9.43829 15.5706C10.0388 16.129 10.5656 16.7612 11.1872 17.2985C11.5771 17.6356 12.0512 17.899 12.5358 18.0781C14.9591 18.9842 16.2866 20.7437 16.6764 23.2618C16.7502 23.7675 16.7818 24.2837 16.7923 24.7895C16.8028 27.1706 16.8028 29.5517 16.8028 31.9328C16.8028 32.0381 16.7923 32.1329 16.7923 32.2594C14.1057 32.2594 11.4401 32.2594 8.73239 32.2594C8.73239 32.1329 8.73239 32.0276 8.73239 31.9117C8.74293 31.1215 8.72185 30.3418 8.764 29.5517C8.82721 28.3822 8.39524 27.4445 7.58399 26.6543C6.24594 25.3479 4.93949 24.0203 3.59091 22.7244C2.82179 21.9659 2.1475 21.1757 2 20.0589C2 15.0649 2 10.0815 2 5.08748Z" fill="#0075FF"/>
<path d="M28.2408 12.7692C28.3146 12.4847 28.3567 12.2213 28.441 11.9684C28.8624 10.7884 28.7676 9.54519 28.9151 8.32304C29.0626 7.14303 29.2944 5.98409 29.9687 4.97265C30.2216 4.58282 30.5376 4.26675 30.9907 4.09817C31.8125 3.7821 32.6448 4.25621 32.7818 5.12015C32.8028 5.27819 32.8028 5.43622 32.8028 5.59426C32.8028 10.209 32.7923 14.8236 32.8134 19.4383C32.8134 20.5657 32.4341 21.4928 31.6334 22.283C30.1794 23.6948 28.7571 25.1382 27.3031 26.55C26.4181 27.4139 25.9545 28.4043 26.0388 29.6581C26.0915 30.3956 26.0599 31.1436 26.0704 31.8811C26.0704 31.997 26.0704 32.1024 26.0704 32.2394C23.3838 32.2394 20.7182 32.2394 18.0421 32.2394C18.0316 32.1761 18 32.1129 18 32.0497C18.0105 29.3947 17.9895 26.7397 18.0421 24.0846C18.0843 22.2303 18.6954 20.5551 20.1388 19.3224C20.6866 18.8483 21.3504 18.448 22.0247 18.1846C22.9518 17.8158 23.7104 17.268 24.3952 16.5621C25.0063 15.9404 25.6174 15.3083 26.2812 14.7288C26.7658 14.3074 27.3663 14.0545 28.0406 14.1177C29.3998 14.2547 30.2005 15.5928 29.6632 16.8887C29.484 17.3312 29.189 17.7421 28.8624 18.1003C28.0512 18.9642 27.1872 19.7755 26.3654 20.6289C25.786 21.2189 25.7649 21.9669 26.3022 22.5464C26.3233 22.5359 26.3444 22.5359 26.3654 22.5148C27.6613 21.2084 29.0205 19.9441 30.2426 18.5639C31.2014 17.4892 31.4964 16.1617 30.9169 14.771C30.485 13.7279 29.6632 13.0852 28.5569 12.8429C28.4515 12.8324 28.3567 12.8008 28.2408 12.7692Z" fill="#0075FF"/>
<path d="M17.5 18.7658C17.4158 18.6816 17.3315 18.6183 17.2683 18.5446C14.8239 16.1003 12.3691 13.656 9.92479 11.2011C8.18638 9.47325 7.8703 6.94465 9.12407 4.95338C10.6623 2.49853 13.9495 1.87692 16.3306 3.60479C16.7415 3.8998 17.1102 4.25802 17.4684 4.56355C18.0163 4.15266 18.5115 3.66801 19.1015 3.3414C22.2622 1.56085 25.9919 3.29926 26.5609 6.82876C26.8032 8.34592 26.4028 9.72611 25.3703 10.885C24.9699 11.3486 24.5169 11.7701 24.0744 12.202C21.9778 14.3092 19.8706 16.4058 17.774 18.513C17.6897 18.5973 17.6054 18.671 17.5 18.7658Z" fill="#0075FF"/>
</g>
<defs>
<clipPath id="clip0_13_3786">
<rect width="35" height="29.6162" fill="white" transform="translate(0 2.625)"/>
</clipPath>
</defs>
</svg>
