<svg width="24" height="24" viewBox="0 0 24 24" fill="none" xmlns="http://www.w3.org/2000/svg">
<path d="M21 3.75H3C1.75736 3.75 0.75 4.75736 0.75 6V18C0.75 19.2426 1.75736 20.25 3 20.25H21C22.2426 20.25 23.25 19.2426 23.25 18V6C23.25 4.75736 22.2426 3.75 21 3.75Z" fill="#FFD766"/>
<path d="M23.25 6V18C23.25 18.5967 23.0129 19.169 22.591 19.591C22.169 20.0129 21.5967 20.25 21 20.25H12V3.75H21.555C21.6977 3.78419 21.8361 3.83452 21.9675 3.9C22.0916 3.95824 22.2097 4.02858 22.32 4.11L22.4775 4.2375C22.7286 4.45588 22.9281 4.72722 23.0617 5.032C23.1953 5.33677 23.2596 5.66738 23.25 6Z" fill="#F2C861"/>
<path d="M21 3.75001H3.00001C2.56803 3.75026 2.14524 3.87486 1.78217 4.10893C1.41909 4.343 1.13107 4.67665 0.952515 5.07001L11.4525 12.57C11.6129 12.6834 11.8036 12.7461 12 12.75C12.1994 12.7501 12.3936 12.687 12.555 12.57L23.055 5.07001C22.8759 4.67549 22.5868 4.34106 22.2222 4.1069C21.8577 3.87274 21.4333 3.74882 21 3.75001Z" fill="#F7931E"/>
<path d="M12 12.75C12.1994 12.7501 12.3936 12.687 12.555 12.57L23.055 5.07001C22.8759 4.67549 22.5867 4.34106 22.2222 4.1069C21.8577 3.87274 21.4333 3.74882 21 3.75001H12V12.75Z" fill="#E5811F"/>
</svg>
