<svg width="40" height="40" viewBox="0 0 40 40" fill="none" xmlns="http://www.w3.org/2000/svg">
<path fill-rule="evenodd" clip-rule="evenodd" d="M13.3334 21.6667C9.44504 21.6667 1.66504 23.6117 1.66504 27.5V31.665H25V27.5C25 23.6117 17.2234 21.6667 13.3334 21.6667ZM26.6684 21.6667C26.1834 21.6667 25.64 21.6967 25.0584 21.7567C26.9884 23.1533 28.3334 25.0283 28.3334 27.5V31.665H38.3317V27.5C38.3317 23.6117 30.5567 21.6667 26.6684 21.6667ZM13.3334 8.33167C10.5734 8.33167 8.33337 10.5733 8.33337 13.3333C8.33337 16.0933 10.5734 18.3333 13.3334 18.3333C16.095 18.3333 18.3184 16.0933 18.3184 13.3333C18.3184 10.5733 16.095 8.33167 13.3334 8.33167ZM26.6684 8.33167C23.905 8.33167 21.6667 10.5733 21.6667 13.3333C21.6667 16.0933 23.905 18.3333 26.6684 18.3333C29.4284 18.3333 31.65 16.0933 31.65 13.3333C31.65 10.5733 29.4284 8.33167 26.6684 8.33167Z" fill="#0075FF"/>
</svg>
