<svg width="40" height="40" viewBox="0 0 40 40" fill="none" xmlns="http://www.w3.org/2000/svg">
<path d="M19.6612 30.4249C20.0389 30.6692 20.3943 30.8914 20.7831 31.1358C20.3721 31.78 19.9611 32.4576 19.5279 33.1019C19.3391 33.3796 19.3168 33.5573 19.539 33.8572C20.1833 34.757 20.1499 35.9567 19.5057 36.8564C18.8503 37.7673 17.7284 38.1783 16.6398 37.8895C15.5845 37.6117 14.7625 36.6565 14.6848 35.5457C14.6626 35.2568 14.5737 35.1458 14.3071 35.068C13.2741 34.7681 12.241 34.4349 11.1969 34.1349C11.0747 34.1016 10.8747 34.1572 10.797 34.246C9.76393 35.4124 8.53094 35.6345 7.18687 34.8459C7.14244 34.8236 7.0869 34.8014 7.03136 34.7681C6.46485 35.2124 5.88723 35.6456 5.33183 36.1122C5.24297 36.1899 5.20964 36.4232 5.24297 36.5676C5.70951 38.356 4.39876 40.0333 2.58815 39.9889C1.49956 39.9555 0.533166 39.2335 0.166601 38.1894C-0.199964 37.1452 0.122169 36.0011 0.966379 35.2791C1.81059 34.5682 2.96582 34.4349 3.92111 34.9791C4.24325 35.168 4.44319 35.1458 4.70978 34.9125C5.10967 34.557 5.55399 34.2349 5.98721 33.9128C6.16494 33.7795 6.22048 33.6684 6.15383 33.424C5.70951 31.8245 6.64258 30.3249 8.25324 30.0139C9.78615 29.7251 11.1969 30.8581 11.3635 32.5132C11.3746 32.6354 11.5079 32.802 11.6301 32.8353C12.6965 33.1796 13.7739 33.5129 14.8514 33.8239C14.9625 33.8572 15.1513 33.8017 15.218 33.7239C15.94 32.8575 16.8286 32.4909 17.9506 32.7131C18.0727 32.7353 18.2727 32.602 18.3504 32.4909C18.7837 31.8134 19.228 31.1136 19.6612 30.4249Z" fill="white"/>
<path d="M27.3479 29.3474C29.1252 29.3474 30.8691 29.3474 32.6353 29.3474C32.6464 29.4141 32.6575 29.4696 32.6575 29.514C32.6575 31.6912 32.6686 33.8684 32.6575 36.0455C32.6464 37.3674 31.6689 38.4449 30.3471 38.6337C29.1141 38.8226 27.8589 38.0228 27.4701 36.8009C27.3923 36.5565 27.3368 36.2899 27.3368 36.0233C27.3257 33.8573 27.3257 31.6912 27.3257 29.5251C27.3257 29.4918 27.3368 29.4363 27.3479 29.3474ZM29.3473 30.6804C29.3473 31.1358 29.3473 31.5468 29.3473 31.9689C29.7917 31.9689 30.2138 31.9689 30.6248 31.9689C30.6248 31.5246 30.6248 31.1025 30.6248 30.6804C30.1916 30.6804 29.7806 30.6804 29.3473 30.6804ZM30.6359 34.657C30.6359 34.2016 30.6359 33.7795 30.6359 33.3574C30.1916 33.3574 29.7694 33.3574 29.3585 33.3574C29.3585 33.8128 29.3585 34.2238 29.3585 34.657C29.7917 34.657 30.1916 34.657 30.6359 34.657ZM30.647 36.0233C30.1916 36.0233 29.7695 36.0233 29.3473 36.0233C29.3473 36.4677 29.3473 36.8898 29.3473 37.3008C29.8028 37.3008 30.2138 37.3008 30.647 37.3008C30.647 36.8675 30.647 36.4677 30.647 36.0233Z" fill="white"/>
<path d="M23.9934 27.9811C24.0045 29.0919 23.0936 29.9917 21.9828 29.9917C20.8942 29.9917 19.9945 29.0919 19.9945 28.0034C19.9834 26.8925 20.8942 25.9928 22.005 25.9928C23.0936 26.0039 23.9823 26.8925 23.9934 27.9811Z" fill="white"/>
<path d="M31.2913 27.981C30.4138 27.981 29.5584 27.981 28.6809 27.981C28.6809 27.5145 28.6809 27.0702 28.6809 26.6259C29.5584 26.6259 30.4027 26.6259 31.2913 26.6259C31.2913 27.048 31.2913 27.4923 31.2913 27.981Z" fill="white"/>
<path d="M36.0011 19.439C36.0011 16.9397 36.0011 14.4959 36.0011 12.0078C35.1014 12.0078 34.235 12.0078 33.3352 12.0078C33.3352 11.5523 33.3352 11.1413 33.3352 10.697C31.1025 10.697 28.9142 10.697 26.6704 10.697C26.6704 11.5634 26.6704 12.4299 26.6704 13.3185C25.7706 13.3185 24.9153 13.3185 24.0045 13.3185C24.0045 15.3624 24.0045 17.3729 24.0045 19.4501C22.2272 17.1508 21.9495 12.9519 24.8709 10.0861C27.6923 7.32016 32.2244 7.28684 35.057 10.0305C38.0228 12.8853 37.7895 17.0952 36.0011 19.439Z" fill="white"/>
<path d="M31.9578 18.6392C30.6248 18.6392 29.3363 18.6392 28.0144 18.6392C28.0144 16.4287 28.0144 14.2404 28.0144 12.0299C29.314 12.0299 30.6248 12.0299 31.9578 12.0299C31.9578 14.2182 31.9578 16.4065 31.9578 18.6392Z" fill="white"/>
<path d="M35.5679 20.0277C32.8242 23.5156 27.1924 23.5378 24.4265 20.0277C28.1366 20.0277 31.8356 20.0277 35.5679 20.0277Z" fill="white"/>
<path d="M34.6348 18.6392C34.1905 18.6392 33.7795 18.6392 33.3574 18.6392C33.3574 16.8731 33.3574 15.1402 33.3574 13.3629C33.7684 13.3629 34.1905 13.3629 34.6348 13.3629C34.6348 15.1069 34.6348 16.8508 34.6348 18.6392Z" fill="white"/>
<path d="M25.3485 14.6737C25.7928 14.6737 26.1927 14.6737 26.6259 14.6737C26.6259 15.9956 26.6259 17.2952 26.6259 18.6393C26.2149 18.6393 25.7928 18.6393 25.3485 18.6393C25.3485 17.3174 25.3485 16.0178 25.3485 14.6737Z" fill="white"/>
<g clip-path="url(#clip0_13_3651)">
<path d="M1.45425 26.9767C1.16174 26.9767 0.924074 26.7311 0.930168 26.435V26.4287C0.94845 25.5092 0.911886 24.5833 0.97892 23.67C1.11908 21.8876 2.6304 20.313 4.34891 20.0862C5.15941 19.9791 5.14722 19.9854 5.54333 20.7098C6.28071 22.0639 7.42638 22.7316 8.90723 22.7064C10.3393 22.6875 11.4484 22.0324 12.1431 20.7035C12.1675 20.6531 12.1919 20.6027 12.2102 20.5523C12.4235 20.0421 12.4844 19.998 12.9902 20.0484C14.8794 20.2248 16.3175 21.56 16.6588 23.4874C16.7319 23.9094 16.7197 24.3503 16.7258 24.7786C16.738 25.3202 16.7197 25.8619 16.7319 26.4099C16.7319 26.4287 16.7319 26.4476 16.7319 26.4665C16.7258 26.7563 16.4882 26.9893 16.2078 26.9893H1.45425V26.9767Z" fill="white"/>
<path d="M9.99196 2.79065C10.3454 2.79065 10.6928 2.82844 11.0401 2.90402C11.2534 2.94811 11.4667 2.9985 11.6739 3.07408C13.7885 3.7921 15.2267 5.78871 15.2694 8.08135C15.2937 9.43551 15.2755 10.7897 15.2755 12.1438C15.2755 12.3076 15.245 12.4588 15.0561 12.4588C14.8672 12.4588 14.8306 12.3139 14.8306 12.1438C14.8306 11.6652 14.8306 11.1865 14.8306 10.7015C14.8306 10.0276 14.5503 9.62447 13.9348 9.41662C13.3132 9.20877 12.8318 8.83716 12.4905 8.30809C11.7958 7.24365 10.5587 7.13658 9.72382 8.08135C8.87676 9.03871 7.87734 9.79452 6.70729 10.3173C5.85413 10.6952 4.9705 10.9282 4.04421 11.0164C3.31293 11.0857 2.9351 11.4636 2.84369 12.2131C2.82541 12.358 2.76447 12.4588 2.61821 12.4588C2.45977 12.4588 2.39883 12.3454 2.39883 12.1879C2.39883 11.4825 2.39273 10.7708 2.39883 10.0654C2.40492 9.26545 2.38054 8.45925 2.44148 7.65935C2.61212 5.26594 4.53782 3.16856 6.84745 2.85993C6.91449 2.85363 6.98152 2.83474 7.04856 2.81584C7.09731 2.80325 7.14606 2.79695 7.19481 2.79695L9.99196 2.79065Z" fill="white"/>
<path d="M14.1115 12.2132C14.0445 13.0131 14.0627 13.8256 13.8982 14.6003C13.3741 17.1259 11.1803 18.8265 8.6208 18.7635C6.23804 18.7069 4.12342 16.8299 3.72121 14.3546C3.60543 13.6555 3.64199 12.9312 3.6298 12.2132C3.62371 11.9738 3.78825 11.8667 4.08685 11.8164C4.61094 11.7345 5.14112 11.6652 5.65911 11.5329C7.68232 11.0039 9.3338 9.87013 10.6562 8.20734C10.6989 8.15066 10.7415 8.09397 10.7842 8.04358C11.0401 7.73496 11.3448 7.77905 11.5215 8.13806C11.6373 8.3837 11.7592 8.63564 11.9116 8.85608C12.3442 9.49223 12.9293 9.92682 13.6484 10.1725C14.0079 10.2921 14.0567 10.3677 14.0567 10.7708C14.0506 11.2495 14.1115 11.7345 14.1115 12.2132C14.1298 12.2132 14.0871 12.2132 14.1115 12.2132Z" fill="white"/>
<path d="M8.83404 21.9253C7.65181 21.9253 6.52441 21.1254 6.08565 19.998C5.96377 19.6831 6.14659 19.513 6.30503 19.3178C6.44519 19.1477 6.61583 19.1414 6.80474 19.2107C8.1637 19.702 9.51657 19.702 10.8755 19.2107C11.0523 19.1477 11.2229 19.1477 11.357 19.3052C11.5215 19.5004 11.7043 19.6705 11.6007 19.9854C11.2229 21.1191 10.0772 21.9253 8.83404 21.9253Z" fill="white"/>
</g>
<circle cx="29.9534" cy="15.3488" r="8.80233" stroke="white"/>
<defs>
<clipPath id="clip0_13_3651">
<rect width="15.814" height="24.186" fill="white" transform="translate(0.930176 2.79065)"/>
</clipPath>
</defs>
</svg>
