<svg width="24" height="24" viewBox="0 0 24 24" fill="none" xmlns="http://www.w3.org/2000/svg">
<g clip-path="url(#clip0_62_4426)">
<path d="M8.79543 23.9434C8.66425 23.9872 8.60179 24.0121 8.46436 23.9997C8.30194 23.9872 8.15202 23.9309 8.02084 23.8372C7.78971 23.6748 7.63979 23.4562 7.62729 23.1251C7.6148 22.6566 7.9084 22.4192 8.27071 22.2068C9.15775 21.6884 10.0448 21.1574 10.9256 20.6264C10.9943 20.5827 11.0942 20.5015 11.0942 20.439C11.1067 19.8393 11.1005 19.2396 11.1005 18.6025C11.1005 18.5275 11.0443 18.4713 10.9693 18.4713C10.7819 18.4713 10.607 18.4775 10.4321 18.4713C8.88914 18.3651 7.33994 18.2901 5.797 18.1402C4.11662 17.9715 2.43625 16.4973 2.08643 14.8482C1.90527 13.9924 1.8553 13.1053 1.78658 12.2245C1.58044 9.50096 1.6554 6.78362 1.949 4.06629C1.97399 3.84141 2.06144 3.78519 2.25509 3.7602C2.96097 3.68524 3.66061 3.56655 4.37274 3.51658C6.50288 3.36665 8.63927 3.19799 10.7757 3.11678C12.8246 3.03558 14.8798 3.10429 16.9287 3.28545C18.6153 3.43537 20.2957 3.62902 21.9823 3.79768C22.1385 3.81017 22.201 3.87264 22.2072 4.02881C22.2947 5.50304 22.4321 6.97103 22.4758 8.44526C22.5383 10.3755 22.3759 12.2995 22.201 14.2173C22.0073 16.3474 20.152 17.9153 18.5466 18.1152C17.3472 18.2651 16.1354 18.3276 14.9297 18.4151C14.2926 18.4588 13.6554 18.4713 13.0057 18.5025C12.937 18.5025 12.8808 18.565 12.8808 18.6337C12.8808 19.2459 12.8808 19.8456 12.8871 20.439C12.8871 20.4952 12.962 20.5639 13.0182 20.6014C13.3118 20.7826 13.6054 20.9575 13.899 21.1324C14.5549 21.5259 15.2108 21.9195 15.8668 22.3068C16.2103 22.5067 16.3852 22.8003 16.3478 23.2001C16.3103 23.5686 16.0979 23.8123 15.7606 23.9497C15.6981 23.9747 15.6294 23.9997 15.5607 23.9997C15.367 23.9997 15.1734 23.9497 15.0047 23.856C14.9422 23.8247 14.886 23.7873 14.8235 23.756C13.9428 23.2313 13.0557 22.7066 12.1812 22.1756C12.0437 22.0882 11.9438 22.0944 11.8064 22.1756C10.8069 22.7628 9.80116 23.35 8.79543 23.9434ZM10.6944 8.05796C10.7069 8.04547 10.7194 8.03297 10.7319 8.02048C10.6445 7.8893 10.582 7.72688 10.4633 7.63943C10.1197 7.40205 9.75743 7.18342 9.39512 6.97727C9.18898 6.85858 8.99533 6.92105 8.82667 7.09596C8.33318 7.62069 7.75223 7.62069 7.26498 7.10221C7.09007 6.92105 6.89642 6.85858 6.67779 6.97727C6.34671 7.15843 6.01563 7.35832 5.69705 7.56447C5.47841 7.7019 5.43468 7.92053 5.49091 8.16415C5.65957 8.89502 5.34098 9.39476 4.59762 9.55718C4.36024 9.60715 4.17909 9.73833 4.16035 9.98196C4.12911 10.4005 4.11662 10.819 4.13536 11.2376C4.14785 11.4749 4.32901 11.6124 4.57263 11.6623C5.32224 11.8123 5.65332 12.362 5.44718 13.0991C5.37846 13.3427 5.42219 13.5551 5.63458 13.6988C5.9719 13.9174 6.31548 14.136 6.67154 14.3297C6.92766 14.4671 7.10881 14.4047 7.28997 14.186C7.76472 13.6238 8.39564 13.6176 8.89538 14.1673C9.07654 14.3672 9.25145 14.4296 9.47633 14.2985C9.8199 14.1048 10.1572 13.8924 10.4821 13.6613C10.6695 13.5301 10.7132 13.3302 10.6507 13.0991C10.4633 12.3994 10.7881 11.8685 11.5003 11.7061C11.7501 11.6498 11.9188 11.5062 11.9438 11.2563C11.975 10.9002 11.9813 10.5442 11.975 10.1881C11.9688 9.83828 11.7751 9.65088 11.4253 9.56967C10.8444 9.43224 10.5258 8.87004 10.657 8.28909C10.6632 8.21413 10.682 8.13292 10.6944 8.05796ZM16.6413 9.65713C17.4222 9.65713 18.203 9.65713 18.9839 9.65713C19.0963 9.65713 19.2213 9.65088 19.3274 9.6134C19.7335 9.48846 19.9959 9.07618 19.9459 8.67639C19.8834 8.19539 19.5211 7.88305 19.0026 7.8768C17.4409 7.87056 15.8792 7.87056 14.3176 7.8768C13.7554 7.8768 13.3493 8.27035 13.3618 8.78258C13.3743 9.28857 13.7678 9.65088 14.3238 9.65088C15.0984 9.66337 15.8668 9.65713 16.6413 9.65713ZM15.367 12.9991C15.7043 12.9991 16.0354 13.0054 16.3727 12.9991C16.5039 12.9991 16.6413 12.9866 16.7663 12.9492C17.1661 12.8242 17.4284 12.4057 17.366 12.0059C17.2973 11.5436 16.9537 11.2313 16.4602 11.2251C15.7356 11.2188 15.0109 11.2126 14.2863 11.2251C13.7554 11.2313 13.3681 11.6186 13.3681 12.1183C13.3681 12.6056 13.7491 12.9866 14.2676 12.9991C14.6299 13.0054 14.9985 12.9991 15.367 12.9991Z" fill="#BCBCBC"/>
<path d="M23.9813 2.09881C23.9688 2.14253 23.95 2.18626 23.9375 2.22999C23.8751 2.37366 23.8188 2.52358 23.7314 2.64227C23.4815 2.9671 23.1317 3.12327 22.7194 3.04831C20.7142 2.70474 18.6965 2.53608 16.6726 2.39865C14.0302 2.21749 11.3816 2.16752 8.7392 2.32994C6.91515 2.44238 5.09734 2.60479 3.27954 2.76721C2.64237 2.82343 2.01145 2.94836 1.38053 3.04206C0.718376 3.14201 0.274857 2.87965 0.0374805 2.25497C0.0374805 2.24873 0.0312337 2.23623 0.024987 2.22999C0.00624675 2.21125 0 2.18626 0 2.15503V1.71151C0 1.69277 0 1.68027 0.00624675 1.66153C0.218636 1.09933 0.643415 0.849457 1.23061 0.780742C1.94274 0.705781 2.64862 0.568353 3.36075 0.499639C5.06611 0.34347 6.77772 0.218535 8.48308 0.0873535C9.03904 0.0436263 9.60125 0.0248861 10.1572 -0.00634766C11.3691 -0.00634766 12.5872 -0.00634766 13.7991 -0.00634766C13.8053 -0.00634766 13.8178 -0.00634766 13.824 -0.00634766C13.8803 0.00614584 13.9365 0.0186393 13.9927 0.0186393C15.2296 0.0873535 16.4727 0.118587 17.7033 0.231029C19.3837 0.380951 21.064 0.599587 22.7444 0.780742C23.3816 0.849457 23.8063 1.14305 23.975 1.77398C24.0062 1.95513 24 2.02384 23.9813 2.09881Z" fill="#BCBCBC"/>
<path d="M6.72778 10.657C6.72778 9.93866 7.32122 9.34521 8.03335 9.34521C8.75798 9.34521 9.36391 9.93866 9.36391 10.6633C9.37016 11.3817 8.75798 11.9938 8.0396 11.9876C7.31498 11.9813 6.72778 11.3879 6.72778 10.657Z" fill="#BCBCBC"/>
</g>
<defs>
<clipPath id="clip0_62_4426">
<rect width="24" height="24" fill="white"/>
</clipPath>
</defs>
</svg>
