<svg width="22" height="22" viewBox="0 0 22 22" fill="none" xmlns="http://www.w3.org/2000/svg">
<path d="M11.6547 1.83367C12.1589 1.82451 12.6365 2.00692 12.993 2.35617C13.3514 2.69442 13.543 3.16284 13.543 3.65784C13.543 4.66617 14.3772 5.48292 15.4139 5.48292C15.7339 5.48292 16.0547 5.39034 16.3398 5.23451C17.228 4.75692 18.3372 5.06034 18.8414 5.91284L19.4656 6.98534C19.6214 7.26034 19.7122 7.57201 19.7122 7.89284C19.7122 8.54367 19.3556 9.14959 18.7781 9.46951C18.493 9.62534 18.2547 9.86367 18.0906 10.1396C17.6039 11.0003 17.9073 12.0903 18.7781 12.5871C19.6572 13.0903 19.9597 14.1913 19.4656 15.0612L18.8414 16.0979C18.5114 16.6653 17.8972 17.0146 17.2372 17.0146C16.9072 17.0146 16.5772 16.9312 16.3031 16.7662C16.0089 16.6103 15.689 16.5187 15.3672 16.5187C14.8722 16.5187 14.3955 16.7121 14.0481 17.0595C13.6897 17.3996 13.4972 17.8662 13.4972 18.352C13.4972 19.3512 12.664 20.167 11.6272 20.167H10.3723C9.87637 20.167 9.40887 19.9653 9.0697 19.6262C8.72137 19.2778 8.53895 18.8195 8.53895 18.3428C8.53895 17.3345 7.71303 16.5187 6.67812 16.5187C6.33803 16.5187 6.00803 16.6103 5.72387 16.7854C5.29303 17.0228 4.7797 17.087 4.30303 16.9678C3.82637 16.8395 3.41387 16.5278 3.16637 16.1153L2.58062 15.0795C2.3047 14.6496 2.2222 14.1353 2.35145 13.6495C2.47887 13.1637 2.80978 12.7512 3.25803 12.5037C3.54312 12.3478 3.78053 12.1187 3.94553 11.8345C4.42312 10.9728 4.1197 9.89117 3.25803 9.38701C2.3872 8.89201 2.0847 7.80117 2.58062 6.93951L3.16637 5.91284C3.41387 5.48292 3.82637 5.17034 4.3122 5.04201C4.79895 4.91367 5.31137 4.98609 5.7422 5.23451C6.03553 5.39034 6.35637 5.47284 6.67812 5.47284C7.17312 5.47284 7.64887 5.28034 7.9972 4.94117C8.34553 4.60201 8.53895 4.13451 8.53895 3.65784C8.53895 2.64951 9.3722 1.83367 10.408 1.83367H11.6547ZM12.0223 8.69126C11.0598 8.29617 9.9497 8.50701 9.2072 9.23117C8.47387 9.94617 8.2447 11.037 8.64803 11.9729C9.04312 12.9162 9.9772 13.5303 11.0222 13.5303H11.0323C11.7198 13.5395 12.3615 13.2746 12.8464 12.797C13.3322 12.3295 13.6072 11.6878 13.6072 11.0187C13.6164 10.0012 12.9839 9.07534 12.0223 8.69126Z" fill="#BCBCBC"/>
</svg>
