<svg width="22" height="22" viewBox="0 0 22 22" fill="none" xmlns="http://www.w3.org/2000/svg">
<path d="M4.45211 9.47059H2.05885C2.47627 7.36647 3.61049 5.47202 5.26835 4.10988C6.92621 2.74773 9.0052 2.00212 11.1513 2C13.2624 2.00672 15.3046 2.75144 16.924 4.10512C18.5434 5.4588 19.638 7.33613 20.0181 9.41176H17.6249C17.273 7.94472 16.4351 6.63972 15.2474 5.70884C14.0597 4.77796 12.5919 4.27593 11.0826 4.28431C9.563 4.30853 8.0929 4.82828 6.89601 5.76447C5.69911 6.70066 4.84096 8.00204 4.45211 9.47059ZM17.6052 12.5882C17.2147 14.0621 16.3462 15.3649 15.1358 16.2927C13.9253 17.2205 12.4412 17.721 10.9159 17.7157C9.41039 17.7179 7.94804 17.2132 6.76468 16.2829C5.58132 15.3527 4.74594 14.0512 4.39326 12.5882H2C2.66697 16.8235 6.34514 20 10.8668 20C15.3885 20 19.1746 16.7647 20.0083 12.5294H17.615V12.5882H17.6052Z" fill="#BCBCBC"/>
</svg>
