<svg width="22" height="22" viewBox="0 0 22 22" fill="none" xmlns="http://www.w3.org/2000/svg">
<path d="M10.9999 2C6.02952 2 2 6.02951 2 11.0001C2 15.9708 6.02952 20 10.9999 20C15.9709 20 20 15.9708 20 11.0001C20 6.02983 15.9709 2.00043 10.9998 2.00043L10.9999 2ZM15.1273 14.9807C14.9661 15.245 14.62 15.3289 14.3556 15.1666C12.2425 13.8758 9.5824 13.5835 6.44962 14.2993C6.14774 14.3681 5.84682 14.1789 5.77804 13.8769C5.70893 13.5749 5.89733 13.274 6.19997 13.2052C9.62829 12.4219 12.569 12.7592 14.9413 14.209C15.2057 14.3713 15.2895 14.7163 15.1273 14.9807ZM16.2288 12.53C16.0257 12.8602 15.5937 12.9645 15.2638 12.7613C12.8446 11.2743 9.15693 10.8437 6.29551 11.7123C5.92441 11.8244 5.53247 11.6152 5.41984 11.2448C5.30807 10.8737 5.51731 10.4825 5.88776 10.3696C9.15628 9.37785 13.2197 9.85825 15.9978 11.5655C16.3277 11.7686 16.432 12.2005 16.2288 12.53ZM16.3234 9.97819C13.4228 8.25529 8.63709 8.09687 5.86767 8.93742C5.42295 9.0723 4.95266 8.82124 4.81789 8.37652C4.68312 7.93158 4.93396 7.46159 5.379 7.32639C8.5581 6.36128 13.843 6.54775 17.1825 8.53031C17.5834 8.76772 17.7145 9.28435 17.477 9.68383C17.2406 10.0838 16.7226 10.2157 16.3238 9.97819H16.3234Z" fill="#BCBCBC"/>
</svg>
