<svg width="205" height="52" viewBox="0 0 205 52" fill="none" xmlns="http://www.w3.org/2000/svg">
<g clip-path="url(#clip0_35_3273)">
<path d="M67.5712 42.2087H68.7092V43.6997C69.3243 42.8235 70.2009 42.0396 71.6003 42.0396C73.3534 42.0396 75.1834 43.4384 75.1834 45.8824C75.1834 48.3263 73.4303 49.7251 71.6003 49.7251C70.2009 49.7251 69.3243 48.9412 68.7092 48.1573V51.9078H67.5712V42.2087ZM73.9531 45.9592C73.9531 44.2069 72.7229 43.0695 71.3235 43.0695C69.9241 43.0695 68.6169 44.2069 68.6169 45.9592C68.6169 47.7115 69.9241 48.8489 71.3235 48.8489C72.8305 48.8489 73.9531 47.8037 73.9531 45.9592ZM76.5828 45.9592C76.5828 43.8688 78.2436 42.0242 80.5195 42.0242C82.7955 42.0242 84.3641 43.7765 84.3641 45.867C84.3661 46.3843 84.2657 46.8969 84.0685 47.3752C83.8714 47.8536 83.5815 48.2882 83.2155 48.654C82.8496 49.0198 82.4148 49.3095 81.9362 49.5066C81.4577 49.7036 80.9448 49.804 80.4273 49.802C78.1513 49.8942 76.5828 48.065 76.5828 45.9592ZM83.2261 45.9592C83.2261 44.2991 81.9958 42.9926 80.4273 42.9926C78.7665 42.9926 77.7207 44.2991 77.7207 45.8824C77.7207 47.4502 78.951 48.7721 80.5195 48.7721C82.0881 48.8489 83.2261 47.5424 83.2261 45.9592ZM85.2406 42.2087H86.4709L88.3931 48.2341L90.4077 42.2087H91.3765L93.391 48.2341L95.3132 42.2087H96.4512L93.8062 49.7251H92.8374L90.8229 43.8688L88.8083 49.7251H87.8395L85.2406 42.2087ZM101.065 48.8489C102.11 48.8489 102.818 48.4186 103.417 47.8037L104.11 48.4186C103.742 48.8719 103.274 49.2341 102.744 49.4768C102.213 49.7194 101.633 49.836 101.049 49.8173C100.541 49.8158 100.039 49.7115 99.5721 49.5109C99.1054 49.3102 98.6841 49.0173 98.3336 48.6497C97.9831 48.2821 97.7105 47.8474 97.5324 47.3719C97.3543 46.8963 97.2742 46.3896 97.297 45.8824C97.297 43.6997 98.7887 41.9474 100.88 41.9474C103.064 41.9474 104.371 43.6997 104.371 45.8824V46.2359H98.4196C98.6195 47.9728 99.7575 48.8489 101.065 48.8489ZM103.248 45.5288C103.156 44.1301 102.372 42.9926 100.895 42.9926C99.5883 42.9926 98.6195 44.0378 98.4504 45.5288H103.248ZM106.216 42.2087H107.354V44.1301C107.877 42.9004 109.015 42.0396 110.415 42.0396V43.2693H110.322C108.661 43.2693 107.354 44.4067 107.354 46.6816V49.6482H106.216V42.2087ZM114.874 48.8489C115.92 48.8489 116.627 48.4186 117.227 47.8037L117.919 48.4186C117.551 48.8719 117.084 49.2341 116.553 49.4768C116.022 49.7194 115.442 49.836 114.859 49.8173C114.351 49.8158 113.848 49.7115 113.382 49.5109C112.915 49.3102 112.494 49.0173 112.143 48.6497C111.793 48.2821 111.52 47.8474 111.342 47.3719C111.164 46.8963 111.084 46.3896 111.107 45.8824C111.107 43.6997 112.598 41.9474 114.69 41.9474C116.873 41.9474 118.18 43.6997 118.18 45.8824V46.2359H112.26C112.429 47.9728 113.567 48.8489 114.874 48.8489ZM117.058 45.5288C116.966 44.1301 116.181 42.9926 114.705 42.9926C113.398 42.9926 112.429 44.0378 112.26 45.5288H117.058ZM119.503 45.9592C119.503 43.5152 121.256 42.0242 123.086 42.0242C124.485 42.0242 125.362 42.8082 125.977 43.5921V39.1345H127.115V49.7097H125.977V48.2187C125.362 49.0949 124.485 49.8788 123.086 49.8788C122.093 49.827 121.161 49.3868 120.49 48.6533C119.82 47.9198 119.465 46.952 119.503 45.9592ZM126.069 45.9592C126.069 44.2069 124.762 43.0695 123.363 43.0695C121.871 43.0695 120.733 44.1147 120.733 45.9592C120.733 47.7115 121.963 48.8489 123.363 48.8489C124.67 48.8489 126.069 47.7115 126.069 45.9592ZM134.727 48.2341V49.6329H133.589V39.1499H134.727V43.6997C135.342 42.8235 136.219 42.0396 137.618 42.0396C139.371 42.0396 141.201 43.4384 141.201 45.8824C141.201 48.3263 139.448 49.7251 137.618 49.7251C136.204 49.802 135.327 49.1103 134.727 48.2341ZM140.048 45.9592C140.048 44.2069 138.818 43.0695 137.418 43.0695C136.019 43.0695 134.712 44.2069 134.712 45.9592C134.712 47.7115 136.019 48.8489 137.418 48.8489C138.833 48.8489 140.048 47.8037 140.048 45.9592ZM142.232 51.6465L142.585 50.7703C142.939 50.9394 143.277 51.0316 143.723 51.0316C144.415 51.0316 144.769 50.6781 145.292 49.6329L141.878 42.2087H143.108L145.815 48.4186L148.168 42.2087H149.398L146.245 49.8942C145.63 51.462 144.846 51.9846 143.8 51.9846C143.293 52 142.77 51.9078 142.232 51.6465ZM154.996 44.6527C154.996 41.8552 157.01 39.4112 160.07 39.4112C161.442 39.3524 162.784 39.8198 163.823 40.7177L163.131 41.5939C162.72 41.2124 162.239 40.9156 161.714 40.7204C161.189 40.5252 160.63 40.4355 160.07 40.4564C157.794 40.4564 156.226 42.3778 156.226 44.5604C156.226 47.0044 157.794 48.7567 160.255 48.7567C161.312 48.7618 162.337 48.3914 163.146 47.7115V45.2675H160.086V44.2223H164.284V48.2495C163.183 49.2546 161.746 49.8136 160.255 49.8173C157.01 49.8942 154.996 47.5424 154.996 44.6527ZM166.022 47.5424C166.022 45.8824 167.329 45.0984 169.251 45.0984C170.22 45.0984 170.912 45.1907 171.527 45.452V45.1907C171.527 43.8841 170.743 43.1771 169.343 43.1771C168.467 43.1771 167.775 43.3461 167.067 43.6997L166.714 42.8235C167.498 42.47 168.374 42.2087 169.42 42.2087C170.466 42.2087 171.25 42.47 171.865 42.9926C172.138 43.2836 172.349 43.6274 172.483 44.0028C172.618 44.3782 172.675 44.7772 172.65 45.1753V49.7251H171.512V48.5876C171.198 49.0055 170.788 49.3422 170.317 49.5695C169.846 49.7968 169.328 49.9081 168.805 49.8942C167.421 49.802 166.022 49.018 166.022 47.5424ZM171.527 46.9276V46.2359C170.821 46.0072 170.085 45.888 169.343 45.8824C167.944 45.8824 167.16 46.4972 167.16 47.3733C167.16 48.3417 168.036 48.8643 168.99 48.8643C170.481 48.9412 171.527 48.1419 171.527 46.9276ZM174.849 42.2087H175.987V44.1301C176.509 42.9004 177.647 42.0396 179.047 42.0396V43.2693H178.955C177.294 43.2693 175.987 44.4067 175.987 46.6816V49.6482H174.849V42.2087ZM180.523 42.2087H181.661V43.4384C182.184 42.7467 182.799 42.0396 184.106 42.0396C185.336 42.0396 186.121 42.6545 186.459 43.5306C186.982 42.7467 187.766 42.0396 189.089 42.0396C190.842 42.0396 191.888 43.1771 191.888 45.0062V49.6329H190.75V45.2675C190.75 43.7765 190.058 42.9926 188.827 42.9926C187.689 42.9926 186.736 43.8688 186.736 45.2675V49.556H185.598V45.1907C185.598 43.7919 184.906 43.008 183.676 43.008C182.445 43.008 181.584 43.9764 181.584 45.3597V49.6482H180.446V42.2241H180.523V42.2087ZM194.163 39.3189H195.471V40.5486H194.163V39.3189ZM194.256 42.2087H195.394V49.6329H194.256V42.2087ZM197.839 42.2087H198.977V43.5152C199.5 42.7313 200.284 42.0242 201.514 42.0242C203.344 42.0242 204.405 43.2539 204.405 44.9908V49.6175H203.267V45.2521C203.267 43.8534 202.483 42.9772 201.176 42.9772C199.869 42.9772 198.9 43.9456 198.9 45.329V49.6175H197.762V42.1933H197.839V42.2087ZM35.5848 17.4768H31.8326C32.487 14.1779 34.2653 11.2077 36.8646 9.07207C39.4638 6.93644 42.7234 5.76743 46.0881 5.76411C49.3979 5.77464 52.5998 6.94225 55.1388 9.06461C57.6778 11.187 59.3939 14.1303 59.9898 17.3846H56.2376C55.6859 15.0845 54.3723 13.0384 52.5101 11.579C50.648 10.1195 48.3467 9.3324 45.9804 9.34555C43.5979 9.38352 41.293 10.1984 39.4165 11.6662C37.5399 13.134 36.1945 15.1744 35.5848 17.4768ZM56.2068 22.3648C55.5945 24.6755 54.2329 26.7181 52.3351 28.1728C50.4373 29.6275 48.1105 30.4121 45.719 30.4038C43.3586 30.4073 41.0659 29.6159 39.2106 28.1575C37.3553 26.699 36.0455 24.6584 35.4926 22.3648H31.7403C32.786 29.005 38.5528 33.9852 45.6421 33.9852C52.7314 33.9852 58.6673 28.9128 59.9745 22.2725H56.2222V22.3648H56.2068ZM186.121 25.3467C184.89 28.4978 181.569 30.3269 177.032 30.3269C174.265 30.323 171.612 29.2278 169.648 27.2793C167.684 25.3308 166.569 22.6865 166.544 19.9208C166.557 17.1513 167.668 14.4999 169.634 12.5488C171.601 10.5977 174.262 9.50646 177.032 9.51463C181.584 9.51463 184.721 11.436 186.121 14.4026C186.382 15.0174 186.474 15.2787 187.09 15.2787H189.627C190.073 15.2787 190.242 14.7561 190.15 14.4948C188.75 9.34555 183.676 5.9332 177.032 5.9332C169.251 5.9332 162.869 12.2199 162.869 19.9208C162.869 27.6216 169.251 33.9084 177.032 33.9084C183.583 33.9084 188.658 30.496 190.15 25.439C190.242 25.1777 190.15 24.5628 189.627 24.5628H187.182C186.474 24.5474 186.213 25.0854 186.121 25.3467ZM154.473 26.8223H156.395C157.625 26.8223 157.364 27.514 157.179 27.8676C155.611 31.5412 150.966 33.893 145.031 33.893C137.249 33.893 130.867 27.6063 130.867 19.9054C130.867 12.2046 137.157 5.91782 145.031 5.91782C147.029 5.88881 149.011 6.2787 150.849 7.06236C152.687 7.84602 154.341 9.00604 155.703 10.4676C158.148 13.1729 159.286 16.7544 159.117 20.8738C159.117 21.1351 159.025 21.6577 157.979 21.6577H135.081C134.82 21.6577 134.82 21.919 134.82 21.919C134.989 25.854 139.448 30.3116 144.954 30.3116C148.444 30.3116 150.905 29.4354 152.381 27.9598C153.258 27.1759 153.427 26.8223 154.473 26.8223ZM134.989 18.0916H155.103C155.534 18.0916 155.457 17.7381 155.457 17.7381C154.488 14.418 150.905 9.43778 145.138 9.43778C139.541 9.43778 135.788 14.3257 134.82 17.7381C134.727 17.8303 134.635 18.0916 134.989 18.0916ZM23.2516 25.3467C22.0214 28.4978 18.6997 30.3269 14.1632 30.3269C11.3961 30.323 8.74244 29.2278 6.77865 27.2793C4.81486 25.3308 3.69966 22.6865 3.67536 19.9208C3.6814 18.5502 3.95748 17.1942 4.48781 15.9302C5.01815 14.6663 5.79237 13.5191 6.76625 12.5543C7.74014 11.5894 8.89463 10.8257 10.1638 10.3068C11.433 9.78789 12.792 9.52393 14.1632 9.53C18.7151 9.53 21.8522 11.4514 23.2516 14.418C23.5131 15.0328 23.6053 15.2941 24.2205 15.2941H26.7578C27.2807 15.2941 27.373 14.7715 27.2807 14.5102C25.8813 9.36092 20.8065 5.94857 14.1632 5.94857C12.3126 5.9262 10.4759 6.27098 8.75951 6.96294C7.04311 7.6549 5.48108 8.6803 4.16385 9.97977C2.84662 11.2792 1.80035 12.827 1.08562 14.5334C0.370894 16.2397 0.00189856 18.0709 0 19.9208C0 27.6063 6.28963 33.9084 14.1632 33.9084C20.7143 33.9084 25.789 30.496 27.2807 25.439C27.373 25.1777 27.2807 24.5628 26.7578 24.5628H24.3127C23.5131 24.5474 23.3439 25.0854 23.2516 25.3467ZM204.052 7.34732H199.33V0.691694C199.33 0.338161 198.977 0 198.638 0H196.455C196.101 0 195.763 0.353532 195.763 0.691694V24.7165C195.763 29.2663 198.731 32.5865 203.452 33.3704C203.713 33.3704 204.236 33.4626 204.236 32.6787V30.5882C204.236 29.9888 203.713 29.8043 203.452 29.7121C200.822 29.0204 199.423 27.2681 199.423 24.7319V10.9288H204.052C204.405 10.9288 204.667 10.6675 204.667 10.3139V7.94679C204.667 7.60863 204.313 7.34732 204.052 7.34732ZM78.3359 5.94857C75.9487 5.89294 73.5824 6.40391 71.4311 7.43955C70.2804 8.01128 69.2186 8.74646 68.2786 9.62223C68.2786 9.62223 64.2496 13.6494 64.2496 19.8439V32.2483C64.2496 32.6787 64.6032 33.1244 65.1261 33.1244H67.0484C67.479 33.1244 67.9249 32.7709 67.9249 32.2483V19.9208C67.9249 18.2607 68.3555 16.5084 69.2321 14.7715C70.2009 12.8501 72.646 9.53 78.4128 9.53C82.7032 9.53 85.8404 11.3591 87.5935 14.7715C88.4602 16.3534 88.9397 18.118 88.9929 19.9208V32.3252C88.9929 32.7555 89.3466 33.2013 89.8694 33.2013H91.7917C92.2223 33.2013 92.6682 32.8478 92.6682 32.3252V19.9208C92.4991 7.2551 82.611 5.94857 78.3359 5.94857ZM112.337 5.94857C109.95 5.89294 107.583 6.40391 105.432 7.43955C104.281 8.01128 103.219 8.74646 102.28 9.62223C102.28 9.62223 98.2505 13.6494 98.2505 19.8439V32.2483C98.2505 32.6787 98.6041 33.1244 99.127 33.1244H101.049C101.48 33.1244 101.926 32.7709 101.926 32.2483V19.9208C101.926 18.2607 102.356 16.5084 103.233 14.7715C104.202 12.8501 106.647 9.53 112.414 9.53C116.704 9.53 119.841 11.3591 121.594 14.7715C122.461 16.3534 122.941 18.118 122.994 19.9208V32.3252C122.994 32.7555 123.347 33.2013 123.87 33.2013H125.793C126.223 33.2013 126.669 32.8478 126.669 32.3252V19.9208C126.5 7.2551 116.627 5.94857 112.337 5.94857Z" fill="white"/>
</g>
<defs>
<clipPath id="clip0_35_3273">
<rect width="204.667" height="52" fill="white"/>
</clipPath>
</defs>
</svg>
