<svg width="12" height="16" viewBox="0 0 12 16" fill="none" xmlns="http://www.w3.org/2000/svg">
<path d="M0 0H5.74097C6.91806 0 7.92952 0.18315 8.77533 0.549451C9.62819 0.915751 10.2837 1.45788 10.7418 2.17582C11.2 2.89377 11.4291 3.77656 11.4291 4.82418C11.4291 5.68132 11.2881 6.41758 11.0062 7.03297C10.7313 7.64103 10.3401 8.15018 9.8326 8.56044C9.33216 8.96337 8.74361 9.28571 8.06696 9.52747L7.06256 10.0769H2.07225L2.0511 7.50549H5.76211C6.31894 7.50549 6.78062 7.40293 7.14714 7.1978C7.51366 6.99267 7.78855 6.70696 7.97181 6.34066C8.16212 5.97436 8.25727 5.54945 8.25727 5.06593C8.25727 4.55311 8.16564 4.10989 7.98238 3.73626C7.79912 3.36264 7.5207 3.07692 7.14714 2.87912C6.77357 2.68132 6.30485 2.58242 5.74097 2.58242H3.17181V16H0V0ZM8.60617 16L5.09604 8.86813L8.44758 8.84615L12 15.8462V16H8.60617Z" fill="#0075FF"/>
</svg>
