<svg width="22" height="22" viewBox="0 0 22 22" fill="none" xmlns="http://www.w3.org/2000/svg">
<path d="M11.053 14.8229L6.75624 19.1197C6.23602 19.6218 5.54125 19.9024 4.81827 19.9024C4.09529 19.9024 3.40052 19.6218 2.8803 19.1197C2.62516 18.8656 2.42271 18.5635 2.28457 18.231C2.14643 17.8984 2.07532 17.5418 2.07532 17.1817C2.07532 16.8216 2.14643 16.465 2.28457 16.1325C2.42271 15.7999 2.62516 15.4979 2.8803 15.2438L7.17706 10.947C7.38559 10.7385 7.50274 10.4556 7.50274 10.1607C7.50274 9.86583 7.38559 9.58301 7.17706 9.37448C6.96853 9.16595 6.6857 9.04879 6.3908 9.04879C6.09589 9.04879 5.81306 9.16595 5.60453 9.37448L1.30778 13.6823C0.442175 14.6245 -0.025968 15.8646 0.00111266 17.1438C0.0281933 18.423 0.548403 19.6422 1.4531 20.5469C2.35781 21.4516 3.57704 21.9718 4.8562 21.9989C6.13535 22.026 7.37551 21.5578 8.31769 20.6922L12.6255 16.3955C12.8341 16.1869 12.9512 15.9041 12.9512 15.6092C12.9512 15.3143 12.8341 15.0315 12.6255 14.8229C12.417 14.6144 12.1342 14.4973 11.8393 14.4973C11.5444 14.4973 11.2615 14.6144 11.053 14.8229ZM20.5546 1.44541C19.623 0.519619 18.363 0 17.0496 0C15.7363 0 14.4763 0.519619 13.5447 1.44541L9.23685 5.74217C9.13359 5.84542 9.05169 5.968 8.99581 6.10291C8.93993 6.23781 8.91116 6.38241 8.91116 6.52843C8.91116 6.67445 8.93993 6.81904 8.99581 6.95395C9.05169 7.08886 9.13359 7.21144 9.23685 7.31469C9.3401 7.41794 9.46268 7.49985 9.59758 7.55573C9.73249 7.61161 9.87708 7.64037 10.0231 7.64037C10.1691 7.64037 10.3137 7.61161 10.4486 7.55573C10.5835 7.49985 10.7061 7.41794 10.8094 7.31469L15.1061 3.01793C15.6263 2.51586 16.3211 2.23528 17.0441 2.23528C17.7671 2.23528 18.4618 2.51586 18.9821 3.01793C19.2372 3.27207 19.4397 3.57408 19.5778 3.90665C19.7159 4.23922 19.787 4.59579 19.787 4.9559C19.787 5.31602 19.7159 5.67259 19.5778 6.00515C19.4397 6.33772 19.2372 6.63974 18.9821 6.89387L14.6853 11.1906C14.5815 11.2936 14.4991 11.4161 14.4429 11.551C14.3867 11.686 14.3577 11.8307 14.3577 11.9769C14.3577 12.1231 14.3867 12.2678 14.4429 12.4028C14.4991 12.5377 14.5815 12.6602 14.6853 12.7632C14.7883 12.867 14.9107 12.9493 15.0457 13.0056C15.1806 13.0618 15.3254 13.0907 15.4716 13.0907C15.6178 13.0907 15.7625 13.0618 15.8975 13.0056C16.0324 12.9493 16.1549 12.867 16.2578 12.7632L20.5546 8.45532C21.4804 7.52375 22 6.26373 22 4.95037C22 3.637 21.4804 2.37698 20.5546 1.44541ZM7.42069 14.5793C7.52417 14.6819 7.64688 14.7631 7.78181 14.8183C7.91673 14.8734 8.06121 14.9013 8.20695 14.9005C8.35269 14.9013 8.49717 14.8734 8.63209 14.8183C8.76702 14.7631 8.88974 14.6819 8.99321 14.5793L14.4417 9.13085C14.6502 8.92232 14.7674 8.63949 14.7674 8.34458C14.7674 8.04968 14.6502 7.76685 14.4417 7.55832C14.2332 7.34979 13.9503 7.23264 13.6554 7.23264C13.3605 7.23264 13.0777 7.34979 12.8692 7.55832L7.42069 13.0068C7.31689 13.1097 7.23451 13.2322 7.17829 13.3672C7.12206 13.5021 7.09312 13.6469 7.09312 13.793C7.09312 13.9392 7.12206 14.084 7.17829 14.2189C7.23451 14.3539 7.31689 14.4764 7.42069 14.5793Z" fill="white"/>
</svg>
