<svg width="24" height="24" viewBox="0 0 24 24" fill="none" xmlns="http://www.w3.org/2000/svg">
<g clip-path="url(#clip0_62_4411)">
<path d="M24 9.66094C23.9719 9.90469 23.9485 10.1531 23.911 10.3922C23.4141 13.6922 21.6985 16.1437 18.661 17.5359C15.4735 18.9984 12.375 18.6562 9.45942 16.7156C9.23442 16.5656 9.02817 16.3828 8.77974 16.1906C8.64849 16.3266 8.52661 16.4625 8.39536 16.5937C8.26411 16.725 8.12349 16.8469 7.95942 17.0016C8.19849 17.2312 8.40942 17.4281 8.61567 17.625C8.82192 17.8266 9.02817 18.0281 9.21567 18.2109C8.62505 18.8016 8.04849 19.3781 7.49536 19.9359C6.36099 18.8016 5.19849 17.6391 4.05005 16.4906C4.59849 15.9469 5.17505 15.375 5.77505 14.7797C6.15942 15.1687 6.56724 15.5812 6.96099 15.9797C7.23755 15.7031 7.49536 15.4453 7.76255 15.1828C7.50474 14.8125 7.21411 14.4281 6.9563 14.0203C6.19224 12.7969 5.7563 11.4562 5.62974 10.0172C5.44692 7.87969 5.93911 5.90625 7.11567 4.12031C8.20317 2.47031 9.68442 1.28906 11.5454 0.590625C12.3891 0.271875 13.261 0.0796875 14.1657 0.0234375C14.1704 0.0234375 14.175 0.0234375 14.1797 0.0234375C14.3579 0.0046875 14.5407 0 14.7188 0H14.8688C15.0563 0 15.2485 0.01875 15.436 0.0328125C16.9079 0.13125 18.286 0.553125 19.5422 1.33125C22.0407 2.86875 23.4797 5.10938 23.9063 8.00625C23.9438 8.25937 23.9672 8.5125 24 8.76562C24 9.06562 24 9.36094 24 9.66094ZM14.7891 2.19375C10.9079 2.19375 7.77192 5.33437 7.77192 9.21094C7.77661 13.0922 10.9125 16.2281 14.7891 16.2281C18.6704 16.2281 21.8063 13.0875 21.8063 9.21094C21.8063 5.32969 18.6657 2.18906 14.7891 2.19375Z" fill="#BCBCBC"/>
<path d="M0 21.2812C0.0234375 21.1687 0.046875 21.0515 0.0703125 20.939C0.178125 20.4796 0.403125 20.0858 0.735937 19.7483C1.45312 19.0312 2.17031 18.314 2.89219 17.5968C2.92031 17.5687 2.94844 17.5499 2.9625 17.5405C4.13438 18.7124 5.29219 19.8749 6.43125 21.0093C5.65312 21.8062 4.86562 22.6312 4.05469 23.4327C3.76406 23.7187 3.38438 23.8499 3 23.953C2.88281 23.9858 2.76562 23.9999 2.64375 23.9999H2.37656C2.25938 23.9999 2.14688 23.9812 2.03438 23.9577C1.07813 23.7562 0.445312 23.189 0.126563 22.2702C0.0703125 22.1062 0.046875 21.9327 0.009375 21.7687C0 21.5999 0 21.4452 0 21.2812Z" fill="#BCBCBC"/>
<path d="M20.4 9.20616C20.4 12.314 17.8875 14.8218 14.7844 14.8171C11.6766 14.8124 9.16875 12.2999 9.17813 9.19678C9.1875 6.09366 11.6813 3.6046 14.7844 3.59522C17.8875 3.59053 20.4 6.10303 20.4 9.20616Z" fill="#BCBCBC"/>
</g>
<defs>
<clipPath id="clip0_62_4411">
<rect width="24" height="24" fill="white"/>
</clipPath>
</defs>
</svg>
