<svg width="26" height="29" viewBox="0 0 26 29" fill="none" xmlns="http://www.w3.org/2000/svg">
<path d="M14.5637 22.1078C14.5637 21.6276 14.5637 21.138 14.5637 20.6484C14.5637 19.1043 14.4718 17.5507 14.8487 16.0442C15.0969 15.0461 15.4555 14.0763 15.7496 13.0877C15.8048 12.9088 15.8508 12.6922 15.8048 12.5133C15.6853 12.0896 15.1337 11.9955 14.8671 12.3533C14.7108 12.5604 14.527 12.5981 14.3247 12.5416C13.9202 12.4286 13.5065 12.3062 13.1296 12.1273C12.8262 11.9861 12.578 11.9955 12.2839 12.1273C11.861 12.3062 11.4197 12.438 10.9784 12.5416C10.8681 12.5698 10.6935 12.4757 10.6015 12.3815C10.3441 12.1273 10.0959 12.0614 9.82931 12.2214C9.57191 12.3815 9.47998 12.6922 9.62707 13.0218C10.1143 14.1516 10.5096 15.3286 10.6475 16.562C10.7578 17.513 10.7946 18.4828 10.8314 19.4432C10.8589 20.3377 10.8405 21.2228 10.8405 22.1455C10.0959 22.1455 9.38805 22.1549 8.68018 22.1361C8.35842 22.1267 8.17456 21.8724 8.15618 21.5052C8.1286 21.0627 8.1286 20.6108 8.05505 20.1682C7.93554 19.4715 7.55863 18.8877 7.15413 18.3228C6.62094 17.5695 6.0142 16.8633 5.58212 16.0536C2.87017 11.0257 6.05097 4.66072 11.6128 3.90747C16.1357 3.30487 20.2267 6.53442 20.7507 11.1669C21.0081 13.4737 20.4013 15.5452 18.9856 17.3624C18.7282 17.6919 18.4708 18.0215 18.2134 18.351C17.5423 19.1984 17.2205 20.1682 17.2481 21.2604C17.2665 21.9948 17.101 22.1455 16.384 22.1455C15.8048 22.1455 15.2348 22.1455 14.6557 22.1361C14.6373 22.1455 14.6189 22.1267 14.5637 22.1078Z" fill="#FFDF38"/>
<path d="M16.3839 23.3695C16.3839 23.6614 16.3839 23.9533 16.3839 24.2734C16.8528 24.3487 17.5055 24.1698 17.4687 24.9231C17.432 25.6481 16.7884 25.4127 16.3748 25.488C15.575 27.7007 14.4718 28.6517 12.6975 28.6517C10.9325 28.6517 9.84768 27.7101 9.0295 25.4786C8.59743 25.4127 7.94472 25.6387 7.93553 24.876C7.92633 24.1793 8.53308 24.3111 9.00192 24.2734C9.00192 23.9721 9.00192 23.6802 9.00192 23.3601C11.4749 23.3695 13.911 23.3695 16.3839 23.3695Z" fill="#FFDF38"/>
<path d="M11.1347 13.8033C11.6679 13.6149 12.1276 13.4455 12.5964 13.2854C12.6608 13.2666 12.7343 13.2571 12.7895 13.276C13.2675 13.436 13.7363 13.6149 14.2603 13.8033C13.2215 16.4773 13.4238 19.3114 13.4146 22.1361C13.3135 22.1455 13.2399 22.1549 13.1756 22.1549C12.7986 22.1549 12.4217 22.1549 11.9897 22.1549C11.9713 19.3208 12.1827 16.4867 11.1347 13.8033Z" fill="#FFDF38"/>
<path d="M23.5821 11.5529C23.9223 11.5529 24.2716 11.5435 24.6118 11.5529C24.9611 11.5623 25.1817 11.7977 25.1909 12.1273C25.1909 12.438 24.9979 12.7016 24.6669 12.711C23.9407 12.7299 23.2236 12.7299 22.4974 12.711C22.1756 12.7016 21.9642 12.438 21.9642 12.1273C21.9734 11.8071 22.2124 11.5623 22.5433 11.5529C22.8835 11.5435 23.2328 11.5529 23.5821 11.5529Z" fill="#FFDF38"/>
<path d="M1.82216 11.5529C2.14392 11.5529 2.46568 11.5529 2.78743 11.5529C3.17354 11.5623 3.43095 11.7883 3.44014 12.1273C3.44933 12.4568 3.21031 12.711 2.84259 12.7205C2.16231 12.7393 1.49121 12.7393 0.810927 12.7205C0.434012 12.711 0.213379 12.4662 0.213379 12.1273C0.213379 11.7789 0.461591 11.5623 0.856893 11.5529C1.17865 11.5435 1.50041 11.5529 1.82216 11.5529Z" fill="#FFDF38"/>
<path d="M21.7803 3.45551C21.6608 3.67207 21.5964 3.84155 21.4861 3.95454C21.0356 4.43473 20.5668 4.91493 20.0979 5.37629C19.813 5.65876 19.482 5.65876 19.243 5.41395C19.0224 5.17857 19.0224 4.83019 19.2798 4.56655C19.7486 4.07694 20.2175 3.59674 20.6863 3.11655C20.8794 2.91882 21.1184 2.84349 21.339 2.97531C21.5137 3.07889 21.624 3.28603 21.7803 3.45551Z" fill="#FFDF38"/>
<path d="M4.22156 21.4111C4.06528 21.2793 3.83545 21.1757 3.7803 21.0156C3.71594 20.8367 3.73433 20.5354 3.85384 20.4036C4.33188 19.8481 4.85588 19.3397 5.37989 18.8218C5.60971 18.5958 5.94066 18.6241 6.1521 18.8406C6.36354 19.0572 6.39112 19.3961 6.17049 19.6315C5.68326 20.1588 5.17764 20.6673 4.66283 21.1757C4.56171 21.2793 4.40542 21.3169 4.22156 21.4111Z" fill="#FFDF38"/>
<path d="M4.23074 2.85291C4.43298 2.96589 4.58926 3.01297 4.69958 3.11654C5.17762 3.58732 5.64647 4.06752 6.11531 4.55713C6.37272 4.83018 6.38191 5.16914 6.16128 5.40453C5.92226 5.65876 5.59131 5.65876 5.30632 5.37629C4.82828 4.90551 4.33186 4.42531 3.8814 3.90745C3.76189 3.76622 3.71592 3.4555 3.77108 3.27661C3.82624 3.10713 4.06526 2.99414 4.23074 2.85291Z" fill="#FFDF38"/>
<path d="M21.7527 20.8273C21.6332 20.978 21.5413 21.2039 21.385 21.2604C21.2103 21.3263 20.9162 21.3075 20.7875 21.1945C20.2451 20.6955 19.7303 20.1494 19.2246 19.6127C19.0224 19.3961 19.0592 19.0572 19.2614 18.8406C19.4637 18.6335 19.8038 18.5864 20.0152 18.7935C20.5576 19.3208 21.0816 19.8669 21.5964 20.413C21.6608 20.4978 21.6792 20.6484 21.7527 20.8273Z" fill="#FFDF38"/>
<path d="M12.6976 1.45941C12.6976 1.73246 12.7068 1.9961 12.6976 2.26915C12.6884 2.65519 12.4677 2.89999 12.146 2.89999C11.8334 2.89058 11.622 2.65519 11.6128 2.28798C11.6036 1.72304 11.6036 1.15811 11.6128 0.593171C11.622 0.235378 11.8518 -0.00942782 12.1644 -1.22097e-05C12.4586 0.0094034 12.6792 0.235378 12.6976 0.57434C12.7068 0.875639 12.6884 1.16752 12.6976 1.45941Z" fill="#FFDF38"/>
</svg>
