<svg width="177" height="52" viewBox="0 0 177 52" fill="none" xmlns="http://www.w3.org/2000/svg">
<path d="M26.5433 0C11.8842 0 0 11.6408 0 26.0002C0 40.3601 11.8842 52 26.5433 52C41.2041 52 53.087 40.3601 53.087 26.0002C53.087 11.6417 41.2041 0.00124191 26.543 0.00124191L26.5433 0ZM38.7159 37.4997C38.2405 38.2635 37.2199 38.5056 36.4401 38.0368C30.208 34.308 22.3626 33.4635 13.1232 35.5312C12.2328 35.73 11.3453 35.1835 11.1425 34.3111C10.9387 33.4386 11.4943 32.5693 12.3869 32.3706C22.4979 30.1078 31.171 31.0821 38.1676 35.2704C38.9473 35.7393 39.1945 36.7359 38.7159 37.4997ZM41.9648 30.4201C41.3657 31.3739 40.0915 31.6751 39.1185 31.0883C31.9837 26.7925 21.1077 25.5484 12.6686 28.0577C11.5742 28.3815 10.4182 27.7773 10.086 26.7071C9.7564 25.635 10.3735 24.5049 11.4661 24.1789C21.1058 21.3138 33.0899 22.7016 41.2833 27.6336C42.2564 28.2204 42.5638 29.4685 41.9648 30.4204V30.4201ZM42.2437 23.0481C33.6889 18.0708 19.5746 17.6132 11.4068 20.0414C10.0952 20.4311 8.70821 19.7058 8.31074 18.421C7.91327 17.1357 8.65306 15.7779 9.96559 15.3874C19.3416 12.5992 34.9282 13.1379 44.7775 18.8653C45.9598 19.5512 46.3465 21.0437 45.646 22.1977C44.9487 23.3533 43.4209 23.7343 42.245 23.0481H42.2437ZM72.2156 24.0019C67.6323 22.9314 66.8177 22.18 66.8177 20.6012C66.8177 19.1097 68.2504 18.1059 70.3836 18.1059C72.4502 18.1059 74.4977 18.8681 76.6467 20.4373C76.7101 20.4848 76.7925 20.5037 76.8718 20.4913C76.9542 20.4795 77.0239 20.4364 77.0715 20.3715L79.3092 17.2816C79.4011 17.1543 79.3758 16.9789 79.2522 16.8817C76.6943 14.872 73.8163 13.8949 70.4501 13.8949C65.5024 13.8949 62.0443 16.8038 62.0443 20.9657C62.0443 25.4289 65.0269 27.0092 70.1807 28.2291C74.5643 29.2186 75.306 30.0476 75.306 31.5292C75.306 33.1716 73.8099 34.1931 71.401 34.1931C68.7259 34.1931 66.542 33.3082 64.1014 31.2404C64.0412 31.1876 63.9588 31.1659 63.8827 31.169C63.8003 31.1752 63.7274 31.2125 63.6767 31.2715L61.1663 34.1962C61.0617 34.3204 61.0744 34.5005 61.1949 34.606C64.0348 37.0899 67.5277 38.4001 71.2996 38.4001C76.6309 38.4001 80.0763 35.5468 80.0763 31.1287C80.0858 27.4007 77.8068 25.336 72.2251 24.0059L72.2156 24.0019ZM92.1398 19.5745C89.8292 19.5745 87.9337 20.4662 86.368 22.2933V20.2367C86.368 20.0743 86.2348 19.9421 86.07 19.9421H81.9654C81.8005 19.9421 81.6674 20.0743 81.6674 20.2367V43.0883C81.6674 43.2498 81.8005 43.3833 81.9654 43.3833H86.07C86.2348 43.3833 86.368 43.2498 86.368 43.0883V35.8759C87.9337 37.5928 89.8292 38.4342 92.1398 38.4342C96.4347 38.4342 100.783 35.1959 100.783 29.0053C100.79 22.8134 96.441 19.5742 92.143 19.5742L92.1398 19.5745ZM96.0099 29.0053C96.0099 32.1563 94.0289 34.3576 91.1889 34.3576C88.3838 34.3576 86.2665 32.057 86.2665 29.0053C86.2665 25.9533 88.3838 23.6532 91.1889 23.6532C93.9814 23.6529 96.0099 25.9033 96.0099 29.005V29.0053ZM111.925 19.5745C106.394 19.5745 102.061 23.7461 102.061 29.0727C102.061 34.3421 106.365 38.4684 111.858 38.4684C117.408 38.4684 121.754 34.3111 121.754 29.0053C121.754 23.7175 117.437 19.5751 111.925 19.5751V19.5745ZM111.925 34.3887C108.983 34.3887 106.764 32.0725 106.764 29.0037C106.764 25.921 108.907 23.684 111.858 23.684C114.818 23.684 117.05 25.9992 117.05 29.0711C117.05 32.1532 114.895 34.3887 111.925 34.3887ZM133.564 19.9421H129.047V15.4196C129.047 15.2576 128.914 15.1253 128.749 15.1253H124.644C124.479 15.1253 124.343 15.2576 124.343 15.4196V19.9421H122.372C122.207 19.9421 122.074 20.0743 122.074 20.2367V23.6914C122.074 23.8535 122.207 23.9861 122.372 23.9861H124.343V32.9263C124.343 36.5372 126.178 38.369 129.801 38.369C131.272 38.369 132.492 38.071 133.643 37.4314C133.738 37.3817 133.795 37.2824 133.795 37.1768V33.8857C133.795 33.7864 133.741 33.6901 133.652 33.6373C133.564 33.5814 133.453 33.5783 133.361 33.6249C132.571 34.013 131.808 34.1931 130.952 34.1931C129.636 34.1931 129.047 33.6063 129.047 32.2961V23.9876H133.564C133.728 23.9876 133.861 23.8554 133.861 23.693V20.2386C133.868 20.0762 133.735 19.9439 133.567 19.9439L133.564 19.9421ZM149.298 19.9598V19.4043C149.298 17.7703 149.938 17.0416 151.37 17.0416C152.226 17.0416 152.914 17.208 153.684 17.4595C153.779 17.4887 153.878 17.4741 153.954 17.4185C154.033 17.3629 154.077 17.2738 154.077 17.1794V13.7921C154.077 13.6626 153.995 13.5481 153.865 13.5099C153.054 13.273 152.014 13.0299 150.454 13.0299C146.667 13.0299 144.66 15.1207 144.66 19.074V19.9247H142.689C142.524 19.9247 142.388 20.057 142.388 20.219V23.6914C142.388 23.8535 142.524 23.9861 142.689 23.9861H144.66V37.7729C144.66 37.9375 144.797 38.0679 144.962 38.0679H149.063C149.231 38.0679 149.364 37.9375 149.364 37.7729V23.987H153.196L159.066 37.7729C158.401 39.2197 157.745 39.5085 156.851 39.5085C156.128 39.5085 155.364 39.2974 154.588 38.8782C154.515 38.841 154.426 38.8348 154.35 38.8565C154.271 38.8844 154.204 38.9403 154.172 39.0148L152.781 42.0047C152.714 42.1476 152.771 42.3121 152.911 42.3866C154.363 43.1566 155.672 43.4857 157.291 43.4857C160.321 43.4857 161.998 42.101 163.472 38.3815L170.591 20.3622C170.629 20.2715 170.616 20.169 170.559 20.0886C170.505 20.0088 170.414 19.9607 170.315 19.9607H166.043C165.913 19.9607 165.799 20.0405 165.757 20.1582L161.38 32.4016L156.588 20.1501C156.543 20.0362 156.432 19.9607 156.309 19.9607H149.298V19.9598ZM140.175 19.9421H136.071C135.906 19.9421 135.77 20.0743 135.77 20.2367V37.7729C135.77 37.9375 135.906 38.0679 136.071 38.0679H140.175C140.34 38.0679 140.477 37.9375 140.477 37.7729V20.238C140.477 20.0756 140.343 19.9433 140.175 19.9433V19.9421ZM138.147 11.9569C136.521 11.9569 135.202 13.246 135.202 14.8384C135.202 16.4318 136.521 17.7225 138.147 17.7225C139.773 17.7225 141.088 16.4318 141.088 14.8384C141.088 13.2463 139.77 11.9569 138.147 11.9569ZM174.097 25.5807C172.474 25.5807 171.209 24.3031 171.209 22.7516C171.209 21.2001 172.49 19.9079 174.112 19.9079C175.735 19.9079 177 21.1852 177 22.7355C177 24.2869 175.719 25.5807 174.097 25.5807ZM174.112 20.1892C172.632 20.1892 171.513 21.3411 171.513 22.7516C171.513 24.1615 172.626 25.2979 174.097 25.2979C175.577 25.2979 176.696 24.1469 176.696 22.7355C176.696 21.3256 175.583 20.1892 174.112 20.1892ZM174.753 23.0264L175.57 24.1466H174.88L174.144 23.1189H173.513V24.1466H172.937V21.1772H174.287C174.994 21.1772 175.456 21.5302 175.456 22.1244C175.46 22.6113 175.171 22.9087 174.756 23.0264H174.753ZM174.265 21.6867H173.513V22.6259H174.265C174.639 22.6259 174.864 22.4461 174.864 22.1558C174.864 21.8503 174.639 21.6867 174.265 21.6867Z" fill="#1ED760"/>
</svg>
