<svg width="18" height="19" viewBox="0 0 18 19" fill="none" xmlns="http://www.w3.org/2000/svg">
<path d="M0 12.7384C0 12.7286 0 12.7188 0.00488998 12.7139C0.0537897 12.5037 0.0880196 12.2934 0.146699 12.088C0.591687 10.5086 2.03423 9.39854 3.67237 9.38876C5.92176 9.37898 8.17115 9.38387 10.4205 9.38876C10.802 9.38876 11.1785 9.45722 11.5355 9.58436C11.6675 9.63326 11.6333 9.83374 11.4914 9.82885H11.4866C10.6553 9.78973 10.0391 10.1467 9.62347 10.8606C9.43765 11.1834 9.25183 11.5061 9.06602 11.8289C8.64548 12.5575 8.66504 13.2812 9.11491 13.9902C9.13936 14.0293 9.15893 14.1125 9.13447 14.1467C8.64548 14.8851 8.65037 15.6333 9.08558 16.3912C9.08558 16.3961 9.08558 16.401 9.08558 16.4352C9.01712 16.4352 8.94866 16.4352 8.8802 16.4352C6.17115 16.4352 3.46699 16.4303 0.757946 16.4401C0.405868 16.4401 0.156479 16.3325 0.0146699 16.0196C0.00488998 16.0049 0.00488998 15.9853 0.00488998 15.9658L0 12.7384Z" fill="#BCBCBC"/>
<path d="M7.43761 0.00488998C7.65766 0.0488998 7.8826 0.0880196 8.10265 0.146699C9.82881 0.625917 11.0366 2.28362 10.9535 4.03912C10.8606 5.92665 9.52563 7.45721 7.70656 7.76528C5.59898 8.12225 3.54519 6.69438 3.19312 4.62103C2.82637 2.45966 4.21023 0.449878 6.33737 0.0635697C6.44495 0.0440098 6.55253 0.0195599 6.66011 0C6.92417 0 7.17845 0 7.43761 0.00488998Z" fill="#BCBCBC"/>
<path d="M14.0783 18C13.8876 18 13.7018 18.0049 13.511 18C13.2372 17.9951 13.0954 17.868 13.0612 17.6039C13.0514 17.5452 13.0465 17.4866 13.0367 17.4279C13.0074 17.2176 13.0318 16.9682 12.9291 16.8117C12.8216 16.6504 12.5819 16.577 12.3961 16.4743C12.3472 16.4499 12.269 16.445 12.2152 16.4646C12 16.5477 11.7849 16.6406 11.5746 16.7286C11.3008 16.8411 11.1345 16.7873 10.9878 16.5379C10.7922 16.2054 10.6015 15.8729 10.4108 15.5355C10.2788 15.3007 10.313 15.1198 10.5233 14.9584C10.7042 14.8166 10.89 14.6748 11.0807 14.5379C11.1687 14.4792 11.1932 14.4157 11.1785 14.3081C11.159 14.1907 11.1394 14.0587 11.1687 13.9462C11.2079 13.7702 11.1541 13.6626 11.0074 13.5697C10.8362 13.4621 10.6797 13.3301 10.5233 13.2078C10.3228 13.0465 10.2837 12.8655 10.4059 12.6455C10.6015 12.2983 10.802 11.956 11.0025 11.6137C11.1345 11.3936 11.3057 11.335 11.5453 11.4328C11.7653 11.5208 11.9805 11.6235 12.2054 11.7017C12.269 11.7213 12.3521 11.7066 12.4157 11.6822C12.489 11.6528 12.5428 11.5795 12.6162 11.555C12.934 11.4572 13.0172 11.2274 13.0172 10.9291C13.0172 10.802 13.0416 10.6748 13.0612 10.5477C13.0905 10.3179 13.2274 10.176 13.4621 10.1712C13.8778 10.1614 14.2934 10.1614 14.7091 10.1712C14.9487 10.176 15.0856 10.3179 15.115 10.5624C15.1443 10.7824 15.1687 10.9976 15.1932 11.2176C15.203 11.3203 15.2323 11.4034 15.3448 11.4425C15.423 11.4719 15.511 11.5061 15.5697 11.5648C15.78 11.7702 15.9903 11.7408 16.225 11.6088C16.3619 11.5306 16.5135 11.4768 16.6602 11.423C16.8705 11.3447 17.0465 11.4034 17.1639 11.599C17.3546 11.9169 17.5404 12.2396 17.7213 12.5624C17.8533 12.7971 17.7996 13.1002 17.5844 13.2665C17.4279 13.3888 17.2665 13.511 17.1003 13.6284C17.0123 13.6919 16.978 13.7555 16.9976 13.8729C17.022 14.0049 17.0318 14.1467 17.0025 14.2738C16.9683 14.4205 17.022 14.4988 17.1345 14.5721C17.3154 14.6993 17.4866 14.8313 17.6626 14.9682C17.8533 15.1198 17.8925 15.3056 17.7751 15.5208C17.5795 15.8729 17.3741 16.2201 17.1687 16.5672C17.0416 16.7775 16.8705 16.8362 16.6357 16.7433C16.4304 16.6602 16.2299 16.577 16.0294 16.4841C15.912 16.4303 15.8191 16.4254 15.7115 16.5135C15.6137 16.5917 15.5013 16.6699 15.3839 16.7091C15.2274 16.7677 15.1932 16.8704 15.1834 17.0171C15.1687 17.2225 15.1394 17.4279 15.1101 17.6333C15.0758 17.8631 14.9389 17.9902 14.6993 18C14.4939 18.0049 14.2837 18 14.0783 18ZM14.0832 15.6528C14.9389 15.6528 15.6431 14.9487 15.648 14.088C15.6529 13.2323 14.9487 12.5232 14.0881 12.5183C13.2274 12.5086 12.5086 13.2274 12.5135 14.088C12.5233 14.9487 13.2274 15.6528 14.0832 15.6528Z" fill="#BCBCBC"/>
</svg>
