<svg width="24" height="24" viewBox="0 0 24 24" fill="none" xmlns="http://www.w3.org/2000/svg">
<path fill-rule="evenodd" clip-rule="evenodd" d="M5.86917 2H7.2975C7.7985 2 8.20258 1.99999 8.5315 2.02243C8.86967 2.04551 9.16875 2.09415 9.45192 2.21145C10.1325 2.49338 10.6733 3.03413 10.9552 3.71475C11.0725 3.99792 11.1212 4.297 11.1443 4.63517C11.1667 4.96408 11.1667 5.36817 11.1667 5.86917V7.2975C11.1667 7.7985 11.1667 8.20263 11.1443 8.5315C11.1212 8.86967 11.0725 9.16875 10.9552 9.45192C10.6733 10.1325 10.1325 10.6733 9.45192 10.9552C9.16875 11.0725 8.86967 11.1212 8.5315 11.1443C8.20258 11.1667 7.7985 11.1667 7.2975 11.1667H5.86917C5.36817 11.1667 4.96408 11.1667 4.63517 11.1443C4.297 11.1212 3.99792 11.0725 3.71475 10.9552C3.03413 10.6733 2.49338 10.1325 2.21145 9.45192C2.09415 9.16875 2.04551 8.86967 2.02243 8.5315C1.99999 8.20258 2 7.7985 2 7.2975V5.86917C2 5.36817 1.99999 4.96408 2.02243 4.63517C2.04551 4.297 2.09415 3.99792 2.21145 3.71475C2.49338 3.03413 3.03413 2.49338 3.71475 2.21145C3.99792 2.09415 4.297 2.04551 4.63517 2.02243C4.96408 1.99999 5.36817 2 5.86917 2ZM5.86917 12.8333H7.2975C7.7985 12.8333 8.20258 12.8333 8.5315 12.8558C8.86967 12.8788 9.16875 12.9275 9.45192 13.0448C10.1325 13.3267 10.6733 13.8675 10.9552 14.5481C11.0725 14.8313 11.1212 15.1303 11.1443 15.4685C11.1667 15.7974 11.1667 16.2015 11.1667 16.7025V18.1308C11.1667 18.6318 11.1667 19.036 11.1443 19.3648C11.1212 19.703 11.0725 20.0021 10.9552 20.2853C10.6733 20.9659 10.1325 21.5066 9.45192 21.7885C9.16875 21.9058 8.86967 21.9545 8.5315 21.9776C8.20258 22 7.7985 22 7.2975 22H5.86917C5.36817 22 4.96408 22 4.63517 21.9776C4.297 21.9545 3.99792 21.9058 3.71475 21.7885C3.03413 21.5066 2.49338 20.9659 2.21145 20.2853C2.09415 20.0021 2.04551 19.703 2.02243 19.3648C1.99999 19.0359 2 18.6318 2 18.1308V16.7025C2 16.2015 1.99999 15.7974 2.02243 15.4685C2.04551 15.1303 2.09415 14.8313 2.21145 14.5481C2.49338 13.8675 3.03413 13.3267 3.71475 13.0448C3.99792 12.9275 4.297 12.8788 4.63517 12.8558C4.96408 12.8333 5.36817 12.8333 5.86917 12.8333ZM16.7025 2H18.1308C18.6318 2 19.0359 1.99999 19.3648 2.02243C19.703 2.04551 20.0021 2.09415 20.2853 2.21145C20.9659 2.49338 21.5066 3.03413 21.7885 3.71475C21.9058 3.99792 21.9545 4.297 21.9776 4.63517C22 4.96408 22 5.36817 22 5.86917V7.2975C22 7.7985 22 8.20263 21.9776 8.5315C21.9545 8.86967 21.9058 9.16875 21.7885 9.45192C21.5066 10.1325 20.9659 10.6733 20.2853 10.9552C20.0021 11.0725 19.703 11.1212 19.3648 11.1443C19.0359 11.1667 18.6318 11.1667 18.1308 11.1667H16.7025C16.2015 11.1667 15.7974 11.1667 15.4685 11.1443C15.1303 11.1212 14.8313 11.0725 14.5481 10.9552C13.8675 10.6733 13.3267 10.1325 13.0448 9.45192C12.9275 9.16875 12.8788 8.86967 12.8558 8.5315C12.8333 8.20258 12.8333 7.7985 12.8333 7.2975V5.86917C12.8333 5.36817 12.8333 4.96408 12.8558 4.63517C12.8788 4.297 12.9275 3.99792 13.0448 3.71475C13.3267 3.03413 13.8675 2.49338 14.5481 2.21145C14.8313 2.09415 15.1303 2.04551 15.4685 2.02243C15.7974 1.99999 16.2015 2 16.7025 2ZM16.7025 12.8333H18.1308C18.6318 12.8333 19.0359 12.8333 19.3648 12.8558C19.703 12.8788 20.0021 12.9275 20.2853 13.0448C20.9659 13.3267 21.5066 13.8675 21.7885 14.5481C21.9058 14.8313 21.9545 15.1303 21.9776 15.4685C22 15.7974 22 16.2015 22 16.7025V18.1308C22 18.6318 22 19.036 21.9776 19.3648C21.9545 19.703 21.9058 20.0021 21.7885 20.2853C21.5066 20.9659 20.9659 21.5066 20.2853 21.7885C20.0021 21.9058 19.703 21.9545 19.3648 21.9776C19.0359 22 18.6318 22 18.1308 22H16.7025C16.2015 22 15.7974 22 15.4685 21.9776C15.1303 21.9545 14.8313 21.9058 14.5481 21.7885C13.8675 21.5066 13.3267 20.9659 13.0448 20.2853C12.9275 20.0021 12.8788 19.703 12.8558 19.3648C12.8333 19.0359 12.8333 18.6318 12.8333 18.1308V16.7025C12.8333 16.2015 12.8333 15.7974 12.8558 15.4685C12.8788 15.1303 12.9275 14.8313 13.0448 14.5481C13.3267 13.8675 13.8675 13.3267 14.5481 13.0448C14.8313 12.9275 15.1303 12.8788 15.4685 12.8558C15.7974 12.8333 16.2015 12.8333 16.7025 12.8333Z" fill="#BCBCBC"/>
</svg>
